<?xml version="1.0" standalone="no"?>
<!DOCTYPE svg PUBLIC "-//W3C//DTD SVG 1.1//EN" "http://www.w3.org/Graphics/SVG/1.1/DTD/svg11.dtd" >
<svg>
<metadata>
Created by FontForge 20090914 at Sun Oct  5 03:25:07 2014
 By www-data
Copyright (c) 2006 by Kittiphat Suakmolson. All rights reserved.
</metadata>
<defs>
<font id="wearealien!!" horiz-adv-x="789" >
  <font-face 
    font-family="we are alien!!"
    font-weight="400"
    font-stretch="normal"
    units-per-em="1000"
    panose-1="2 0 0 0 0 0 0 0 0 0"
    ascent="750"
    descent="-250"
    x-height="683"
    cap-height="696"
    bbox="48.001 -3 882.513 722"
    underline-thickness="50"
    underline-position="-50"
    unicode-range="U+0020-U+007D"
  />
<missing-glyph horiz-adv-x="500" 
 />
    <glyph glyph-name=".notdef" horiz-adv-x="500" 
 />
    <glyph glyph-name="space" unicode=" " horiz-adv-x="500" 
 />
    <glyph glyph-name="space" unicode="&#xa0;" horiz-adv-x="500" 
 />
    <glyph glyph-name="exclam" unicode="!" horiz-adv-x="502" 
d="M249 6c-21.333 0 -41 3.83301 -59 11.5s-33.833 18 -47.5 31s-24.334 28.333 -32.001 46s-11.5 36.167 -11.5 55.5c0 20.667 3.83301 40.167 11.5 58.5s18.334 34.333 32.001 48s29.5 24.334 47.5 32.001s37.667 11.5 59 11.5c19.333 0 38 -3.83301 56 -11.5
s34 -18.334 48 -32.001s25.167 -29.667 33.5 -48s12.5 -37.833 12.5 -58.5c0 -19.333 -4.16699 -37.833 -12.5 -55.5s-19.5 -33 -33.5 -46s-30 -23.333 -48 -31s-36.667 -11.5 -56 -11.5zM249 210c-15.333 0 -29.166 -6.16699 -41.499 -18.5s-18.5 -26.166 -18.5 -41.499
s6.16699 -28.166 18.5 -38.499s26.166 -15.5 41.499 -15.5s29.166 5.16699 41.499 15.5s18.5 23.166 18.5 38.499s-6.16699 29.166 -18.5 41.499s-26.166 18.5 -41.499 18.5zM249 330c-12 0 -23 4.16699 -33 12.5s-15 20.166 -15 35.499v276c0 12 5 22 15 30s21 12 33 12
s22 -4 30 -12s12 -18 12 -30v-276c0 -15.333 -4 -27.166 -12 -35.499s-18 -12.5 -30 -12.5z" />
    <glyph glyph-name="quotedbl" unicode="&#x22;" horiz-adv-x="397" 
d="M117 693c12 0 22 -4 30 -12s12 -18 12 -30v-198c0 -12 -4 -22 -12 -30s-18 -12 -30 -12s-22 4 -30 12s-12 18 -12 30v198c0 12 4 22 12 30s18 12 30 12zM273 693c12 0 22 -4 30 -12s12 -18 12 -30v-198c0 -12 -4 -22 -12 -30s-18 -12 -30 -12
c-9.33301 0 -18.666 4 -27.999 12s-14 18 -14 30v198c0 12 4.66699 22 14 30s18.666 12 27.999 12z" />
    <glyph glyph-name="percent" unicode="%" horiz-adv-x="765" 
d="M249 349c-27.333 0 -53.167 8.16895 -77.5 24.502s-42.5 38.166 -54.5 65.499c-3.33301 9.33301 -6.16602 17.666 -8.49902 24.999s-3.5 17 -3.5 29c0 19.333 3.5 37.833 10.5 55.5s17 33 30 46s28.167 23.333 45.5 31s36.666 11.5 57.999 11.5
c19.333 0 37.833 -3.83301 55.5 -11.5s33 -18 46 -31s23.333 -28.333 31 -46s11.5 -36.167 11.5 -55.5s-3.83301 -37.833 -11.5 -55.5s-18 -33 -31 -46s-28.333 -23.333 -46 -31s-36.167 -11.5 -55.5 -11.5zM248.999 553.002c-18 0 -32.5 -5.5 -43.5 -16.5
s-16.5 -25.5 -16.5 -43.5v-18c6 -9.33301 14.5 -18.666 25.5 -27.999s22.5 -14 34.5 -14c15.333 0 29.166 6.16699 41.499 18.5s18.5 26.166 18.5 41.499c0 18 -6.16699 32.5 -18.5 43.5s-26.166 16.5 -41.499 16.5zM530.999 289.002
c19.333 0 37.832 -3.83105 55.499 -11.498s33 -18 46 -31s23.333 -28.333 31 -46s11.5 -36.167 11.5 -55.5s-3.83301 -37.833 -11.5 -55.5s-18 -33 -31 -46s-28.333 -23.333 -46 -31s-36.167 -11.5 -55.5 -11.5c-27.333 0 -53.166 8.16699 -77.499 24.5
s-42.5 38.166 -54.5 65.499c-3.33301 9.33301 -6.16602 17.666 -8.49902 24.999s-3.5 17 -3.5 29c0 19.333 3.5 37.833 10.5 55.5s17 33 30 46s28.167 23.333 45.5 31s36.666 11.5 57.999 11.5zM530.998 85.0039c15.333 0 29.166 6.16699 41.499 18.5
s18.5 26.166 18.5 41.499c0 18 -6.16699 32.5 -18.5 43.5s-26.166 16.5 -41.499 16.5c-18 0 -32.5 -5.5 -43.5 -16.5s-16.5 -25.5 -16.5 -43.5v-18c6 -9.33301 14.5 -18.666 25.5 -27.999s22.5 -14 34.5 -14zM638.998 601.004
c9.33301 -9.33301 14.166 -19.3311 14.499 -29.998s-2.5 -20.667 -8.5 -30l-468 -510c-6 -6 -15.167 -9.83301 -27.5 -11.5s-23.166 2.16602 -32.499 11.499s-14 19.333 -14 30s4.66699 20.667 14 30l462 504c9.33301 9.33301 19.333 14.166 30 14.499s20.667 -2.5 30 -8.5z
" />
    <glyph glyph-name="ampersand" unicode="&#x26;" horiz-adv-x="745" 
d="M370 364c-27.333 0 -53.167 8.16699 -77.5 24.5s-42.5 38.166 -54.5 65.499c-3.33301 6 -6.16602 13.5 -8.49902 22.5s-3.5 19.5 -3.5 31.5c0 19.333 3.5 37.833 10.5 55.5s17 33 30 46s28.167 23.333 45.5 31s36.666 11.5 57.999 11.5
c19.333 0 37.833 -3.83301 55.5 -11.5s33 -18 46 -31s23.333 -28.333 31 -46s11.5 -36.167 11.5 -55.5c0 -21.333 -3.83301 -40.666 -11.5 -57.999s-18 -32.5 -31 -45.5s-28.333 -23 -46 -30s-36.167 -10.5 -55.5 -10.5zM369.999 568c-18 0 -32.5 -6.16699 -43.5 -18.5
s-16.5 -26.166 -16.5 -41.499v-18c6 -12 14.5 -22 25.5 -30s22.5 -12 34.5 -12c15.333 0 29.166 5.5 41.499 16.5s18.5 25.5 18.5 43.5c0 15.333 -6.16699 29.166 -18.5 41.499s-26.166 18.5 -41.499 18.5zM621.999 340c9.33301 0 18.666 -4 27.999 -12s14 -18 14 -30
s-4.66699 -22 -14 -30s-18.666 -12 -27.999 -12h-210v-210c0 -9.33301 -2.66699 -16.833 -8 -22.5s-12.666 -10.167 -21.999 -13.5c-6 -3.33301 -13 -4.66602 -21 -3.99902s-15 4 -21 10l-252 252c-6 6 -10.333 13.167 -13 21.5s-2.33398 17.166 0.999023 26.499
c3.33301 6 8.83301 11.5 16.5 16.5s16.167 7.5 25.5 7.5h504zM327.999 256h-114l114 -108v108z" />
    <glyph glyph-name="quotesingle" unicode="'" horiz-adv-x="397" 
d="M168 693c12 0 22 -4 30 -12s12 -18 12 -30v-198c0 -12 -4 -22 -12 -30s-18 -12 -30 -12s-22 4 -30 12s-12 18 -12 30v198c0 12 4 22 12 30s18 12 30 12z" />
    <glyph glyph-name="parenleft" unicode="(" horiz-adv-x="486" 
d="M378 82c12 0 22 -4 30 -12s12 -18 12 -30s-4 -22 -12 -30s-18 -12 -30 -12h-258c-12 0 -22 4 -30 12s-12 18 -12 30v546c0 12 4 22 12 30s18 12 30 12h258c12 0 22 -4 30 -12s12 -18 12 -30s-4 -22 -12 -30s-18 -12 -30 -12h-216v-462h216v0z" />
    <glyph glyph-name="parenright" unicode=")" horiz-adv-x="486" 
d="M120 82h216v462h-216c-12 0 -22 4 -30 12s-12 18 -12 30s4 22 12 30s18 12 30 12h258c12 0 22 -4 30 -12s12 -18 12 -30v-546c0 -12 -4 -22 -12 -30s-18 -12 -30 -12h-258c-12 0 -22 4 -30 12s-12 18 -12 30s4 22 12 30s18 12 30 12z" />
    <glyph glyph-name="asterisk" unicode="*" horiz-adv-x="724" 
d="M498 546c8.66699 8.66699 18.667 13 30 13s21.333 -4.33301 30 -13s13 -18.667 13 -30s-4.33301 -21.333 -13 -30l-149 -148l149 -148c8.66699 -8.66699 13 -18.667 13 -30s-4.33301 -21.333 -13 -30s-18.667 -13 -30 -13s-21.333 4.33301 -30 13l-148 149l-148 -149
c-8.66699 -8.66699 -18.667 -13 -30 -13s-21.333 4.33301 -30 13s-13 18.667 -13 30s4.33301 21.333 13 30l149 148l-149 148c-8.66699 8.66699 -13 18.667 -13 30s4.33301 21.333 13 30s18.667 13 30 13s21.333 -4.33301 30 -13l148 -149l148 149v0z" />
    <glyph glyph-name="plus" unicode="+" horiz-adv-x="724" 
d="M602 380c12 0 22 -4 30 -12s12 -18 12 -30s-4 -22 -12 -30s-18 -12 -30 -12h-210v-210c0 -12 -4 -22 -12 -30s-18 -12 -30 -12s-22 4 -30 12s-12 18 -12 30v210h-210c-12 0 -22 4 -30 12s-12 18 -12 30s4 22 12 30s18 12 30 12h210v210c0 12 4 22 12 30s18 12 30 12
s22 -4 30 -12s12 -18 12 -30v-210h210v0z" />
    <glyph glyph-name="comma" unicode="," horiz-adv-x="425" 
d="M351 283c0 -16.667 -2.83594 -32.3311 -8.50293 -46.998s-13.167 -28 -22.5 -40s-20.166 -22.333 -32.499 -31s-25.166 -15.334 -38.499 -20.001v-102c0 -12 -4.66699 -22 -14 -30s-18.666 -12 -27.999 -12c-12 0 -22 4 -30 12s-12 18 -12 30v102
c-21.333 6 -39.333 16.167 -54 30.5s-26.667 32.166 -36 53.499c-3.33301 6 -6.16602 13.5 -8.49902 22.5s-3.5 19.5 -3.5 31.5c0 19.333 3.5 37.833 10.5 55.5s17 33 30 46s28.167 23.333 45.5 31s36.666 11.5 57.999 11.5c19.333 0 37.833 -3.83301 55.5 -11.5
s33 -18 46 -31s23.333 -28.333 31 -46s11.5 -36.167 11.5 -55.5zM206.997 223.003c15.333 0 29.167 5.5 41.5 16.5s18.5 25.5 18.5 43.5c0 15.333 -6.16699 29.166 -18.5 41.499s-26.166 18.5 -41.499 18.5c-18 0 -32.5 -6.16699 -43.5 -18.5s-16.5 -26.166 -16.5 -41.499
v-18c6 -12 13.667 -22 23 -30s21.666 -12 36.999 -12z" />
    <glyph glyph-name="hyphen" unicode="-" horiz-adv-x="575" 
d="M116 304c-12 0 -22 4 -30 12s-12 18 -12 30s4 22 12 30s18 12 30 12h342c12 0 22 -4 30 -12s12 -18 12 -30s-4 -22 -12 -30s-18 -12 -30 -12h-342v0z" />
    <glyph glyph-name="period" unicode="." horiz-adv-x="397" 
d="M252 146c0 18 -5.49902 32.499 -16.499 43.499s-25.5 16.5 -43.5 16.5c-15.333 0 -29.166 -5.5 -41.499 -16.5s-18.5 -25.5 -18.5 -43.5c0 -3.33301 0.166992 -5.66602 0.5 -6.99902s2.16602 -5 5.49902 -11c3.33301 -9.33301 10.166 -18.666 20.499 -27.999
s21.5 -14 33.5 -14c18 0 32.5 6.16699 43.5 18.5s16.5 26.166 16.5 41.499zM192.001 289.999c19.333 0 37.8311 -3.83105 55.498 -11.498s33 -18 46 -31s23.333 -28.333 31 -46s11.5 -36.167 11.5 -55.5s-3.83301 -37.833 -11.5 -55.5s-18 -33 -31 -46
s-28.333 -23.333 -46 -31s-36.167 -11.5 -55.5 -11.5c-27.333 0 -53.166 8.16699 -77.499 24.5s-42.5 38.166 -54.5 65.499c-3.33301 9.33301 -6.16602 17.666 -8.49902 24.999s-3.5 17 -3.5 29c0 19.333 3.83301 37.833 11.5 55.5s18 33 31 46s28.333 23.333 46 31
s36.167 11.5 55.5 11.5z" />
    <glyph glyph-name="slash" unicode="/" horiz-adv-x="651" 
d="M133 16c-6 -6 -15.167 -9.83105 -27.5 -11.498s-23.166 2.16602 -32.499 11.499s-14 19.333 -14 30s4.66699 20.667 14 30l462 504c9.33301 9.33301 19.333 14.166 30 14.499s20.667 -2.5 30 -8.5c9.33301 -9.33301 14.166 -19.333 14.499 -30s-2.5 -20.667 -8.5 -30
l-468 -510v0z" />
    <glyph glyph-name="zero" unicode="0" horiz-adv-x="740" 
d="M360 659c40.667 0 78.834 -8.83301 114.501 -26.5s66.834 -41.5 93.501 -71.5s47.667 -65 63 -105s23 -82.333 23 -127c0 -45.333 -7.66699 -88 -23 -128s-36.333 -75 -63 -105s-57.834 -53.667 -93.501 -71s-73.834 -26 -114.501 -26s-78.834 8.66699 -114.501 26
s-66.834 41 -93.501 71s-47.667 65 -63 105s-23 82.667 -23 128c0 44.667 7.66699 87 23 127s36.333 75 63 105s57.834 53.833 93.501 71.5s73.834 26.5 114.501 26.5zM360 83c28.667 0 55.667 6.33301 81 19s47.5 30 66.5 52s34.167 48 45.5 78s17 62.333 17 97
c0 32.667 -5.66699 64 -17 94s-26.5 56.167 -45.5 78.5s-41.167 40.166 -66.5 53.499s-52.333 20 -81 20s-55.667 -6.66699 -81 -20s-47.5 -31.166 -66.5 -53.499s-34.167 -48.5 -45.5 -78.5s-17 -61.333 -17 -94c0 -34.667 5.66699 -67 17 -97s26.5 -56 45.5 -78
s41.167 -39.333 66.5 -52s52.333 -19 81 -19zM366 425c27.333 0 50.166 -9.16699 68.499 -27.5s27.5 -41.166 27.5 -68.499s-9.16699 -50.166 -27.5 -68.499s-41.166 -27.5 -68.499 -27.5s-50.166 9.16699 -68.499 27.5s-27.5 41.166 -27.5 68.499
s9.16699 50.166 27.5 68.499s41.166 27.5 68.499 27.5z" />
    <glyph glyph-name="one" unicode="1" horiz-adv-x="421" 
d="M217 435c12 0 22 -4 30 -12s12 -18 12 -30v-342c0 -12 -4 -22 -12 -30s-18 -12 -30 -12s-22 4 -30 12s-12 18 -12 30v342c0 12 4 22 12 30s18 12 30 12zM217 657c27.333 0 50.166 -9.16699 68.499 -27.5s27.5 -41.166 27.5 -68.499s-9.16699 -50.166 -27.5 -68.499
s-41.166 -27.5 -68.499 -27.5s-50.166 9.16699 -68.499 27.5s-27.5 41.166 -27.5 68.499s9.16699 50.166 27.5 68.499s41.166 27.5 68.499 27.5z" />
    <glyph glyph-name="two" unicode="2" horiz-adv-x="757" 
d="M632 85c12 0 22 -4 30 -12s12 -18 12 -30s-4 -22 -12 -30s-18 -12 -30 -12h-504c-9.33301 0 -16.833 2.5 -22.5 7.5s-10.167 10.5 -13.5 16.5c-3.33301 9.33301 -4.66602 18.166 -3.99902 26.499s4 15.5 10 21.5l438 474h-390c-12 0 -22 4 -30 12s-12 18 -12 30
s4 22 12 30s18 12 30 12h486c9.33301 0 17.833 -1.66699 25.5 -5s13.167 -9.66602 16.5 -18.999c3.33301 -6 3.66602 -13 0.999023 -21s-7 -15 -13 -21l-438 -480h408zM296 415c0 -12 -2.49609 -23.5 -7.49609 -34.5s-11.833 -20.5 -20.5 -28.5s-18.834 -14.5 -30.501 -19.5
s-24.167 -7.5 -37.5 -7.5s-25.833 2.5 -37.5 7.5s-21.834 11.5 -30.501 19.5s-15.5 17.5 -20.5 28.5s-7.5 22.5 -7.5 34.5c0 27.333 9.16699 50.166 27.5 68.499s41.166 27.5 68.499 27.5s50.166 -9.16699 68.499 -27.5s27.5 -41.166 27.5 -68.499z" />
    <glyph glyph-name="three" unicode="3" horiz-adv-x="749" 
d="M652 64c6 -6 9.33203 -12.999 9.99902 -20.999s-0.666016 -15 -3.99902 -21c-3.33301 -9.33301 -7.83301 -15.666 -13.5 -18.999s-13.167 -5 -22.5 -5h-492c-9.33301 0 -18.666 4 -27.999 12s-14 18 -14 30c0 9.33301 4.66699 18.666 14 27.999s18.666 14 27.999 14h396
l-186 198c-9.33301 15.333 -14.666 28.666 -15.999 39.999s4 26 16 44l186 198h-396c-9.33301 0 -18.666 4 -27.999 12s-14 18 -14 30c0 9.33301 4.66699 18.666 14 27.999s18.666 14 27.999 14h492c9.33301 0 16.833 -2.66699 22.5 -8s10.167 -12.666 13.5 -21.999
c3.33301 -6 4.66602 -13 3.99902 -21s-4 -15 -10 -21l-234 -252zM183.999 208.001c-27.333 0 -50.166 9.16699 -68.499 27.5s-27.5 41.166 -27.5 68.499s9.16699 50.166 27.5 68.499s41.166 27.5 68.499 27.5s50.166 -9.16699 68.499 -27.5s27.5 -41.166 27.5 -68.499
s-9.16699 -50.166 -27.5 -68.499s-41.166 -27.5 -68.499 -27.5z" />
    <glyph glyph-name="four" unicode="4" horiz-adv-x="712" 
d="M593 328c12 0 22 -3.99805 30 -11.998s12 -18 12 -30v-240c0 -9.33301 -4 -18.666 -12 -27.999s-18 -14 -30 -14s-22 4.66699 -30 14s-12 18.666 -12 27.999v198h-444c-9.33301 0 -16.833 1.66699 -22.5 5s-10.167 9.66602 -13.5 18.999
c-3.33301 6 -4.66602 13 -3.99902 21s4 15 10 21l246 336c9.33301 9.33301 19.333 15.166 30 17.499s20.667 0.5 30 -5.5c9.33301 -9.33301 15.166 -19.333 17.499 -30s0.5 -20.667 -5.5 -30l-204 -270h402zM539 400.002c-13.333 0 -25.8311 2.50195 -37.498 7.50195
s-21.834 11.5 -30.501 19.5s-15.5 17.5 -20.5 28.5s-7.5 22.5 -7.5 34.5c0 27.333 9.16699 50.166 27.5 68.499s41.166 27.5 68.499 27.5c12 0 23.5 -2.5 34.5 -7.5s20.5 -11.833 28.5 -20.5s14.5 -18.834 19.5 -30.501s7.5 -24.167 7.5 -37.5c0 -12 -2.5 -23.5 -7.5 -34.5
s-11.5 -20.5 -19.5 -28.5s-17.5 -14.5 -28.5 -19.5s-22.5 -7.5 -34.5 -7.5z" />
    <glyph glyph-name="five" unicode="5" horiz-adv-x="757" 
d="M632 547h-408l438 -480c6 -6 10.333 -13 13 -21s2.33398 -15 -0.999023 -21c-3.33301 -9.33301 -8.83301 -15.666 -16.5 -18.999s-16.167 -5 -25.5 -5h-486c-12 0 -22 4 -30 12s-12 18 -12 30s4 22 12 30s18 12 30 12h390l-438 474c-6 6 -9.33301 13.167 -10 21.5
s0.666016 17.166 3.99902 26.499c3.33301 6 7.83301 11.5 13.5 16.5s13.167 7.5 22.5 7.5h504c12 0 22 -4 30 -12s12 -18 12 -30s-4 -22 -12 -30s-18 -12 -30 -12zM296 217c0 -27.333 -9.1709 -50.166 -27.5039 -68.499s-41.166 -27.5 -68.499 -27.5
s-50.166 9.16699 -68.499 27.5s-27.5 41.166 -27.5 68.499c0 12 2.5 23.5 7.5 34.5s11.833 20.5 20.5 28.5s18.834 14.5 30.501 19.5s24.167 7.5 37.5 7.5s25.833 -2.5 37.5 -7.5s21.834 -11.5 30.501 -19.5s15.5 -17.5 20.5 -28.5s7.5 -22.5 7.5 -34.5z" />
    <glyph glyph-name="six" unicode="6" horiz-adv-x="753" 
d="M219 224c13.333 0 25.8291 -2.83301 37.4961 -8.5s21.834 -13 30.501 -22s15.5 -19.167 20.5 -30.5s7.5 -23 7.5 -35c0 -27.333 -9.16699 -50.166 -27.5 -68.499s-41.166 -27.5 -68.499 -27.5s-50.166 9.16699 -68.499 27.5s-27.5 41.166 -27.5 68.499
c0 12 2.5 23.667 7.5 35s11.833 21.5 20.5 30.5s18.834 16.333 30.501 22s24.167 8.5 37.5 8.5zM614.996 392c9.33301 0 18.666 -3.99902 27.999 -11.999s14 -18 14 -30v-306c0 -12 -4.66699 -22 -14 -30s-18.666 -12 -27.999 -12c-12 0 -22 4 -30 12s-12 18 -12 30v264
h-438c-12 0 -22 4.66699 -30 14s-12 18.666 -12 27.999v246c0 9.33301 4 18.666 12 27.999s18 14 30 14s22 -4.66699 30 -14s12 -18.666 12 -27.999v-204h438z" />
    <glyph glyph-name="seven" unicode="7" horiz-adv-x="769" 
d="M530 227c13.333 0 25.8311 -2.50195 37.498 -7.50195s21.834 -11.5 30.501 -19.5s15.5 -17.5 20.5 -28.5s7.5 -22.5 7.5 -34.5c0 -27.333 -9.16699 -50.166 -27.5 -68.499s-41.166 -27.5 -68.499 -27.5c-12 0 -23.833 2.5 -35.5 7.5s-22 11.833 -31 20.5
s-16.167 18.834 -21.5 30.501s-8 24.167 -8 37.5c0 12 2.66699 23.5 8 34.5s12.5 20.5 21.5 28.5s19.333 14.5 31 19.5s23.5 7.5 35.5 7.5zM679.998 598.998c3.33301 -9.33301 4.66602 -18.168 3.99902 -26.501s-4 -15.5 -10 -21.5l-474 -534
c-6 -9.33301 -15.167 -14.166 -27.5 -14.499s-23.166 2.5 -32.499 8.5c-9.33301 9.33301 -14 19.333 -14 30s4.66699 20.667 14 30l408 468h-414c-9.33301 0 -18.666 4 -27.999 12s-14 18 -14 30s4.66699 22 14 30s18.666 12 27.999 12h510c9.33301 0 16.833 -2.5 22.5 -7.5
s10.167 -10.5 13.5 -16.5z" />
    <glyph glyph-name="eight" unicode="8" horiz-adv-x="631" 
d="M312 453c-27.333 0 -50.1699 9.16699 -68.5029 27.5s-27.5 41.166 -27.5 68.499c0 12 2.5 23.5 7.5 34.5s11.833 20.5 20.5 28.5s18.834 14.5 30.501 19.5s24.167 7.5 37.5 7.5s25.833 -2.5 37.5 -7.5s21.834 -11.5 30.501 -19.5s15.5 -17.5 20.5 -28.5
s7.5 -22.5 7.5 -34.5c0 -27.333 -9.16699 -50.166 -27.5 -68.499s-41.166 -27.5 -68.499 -27.5zM311.996 393c26.667 0 52 -5.33301 76 -16s45 -25 63 -43s32.333 -39 43 -63s16 -49.333 16 -76c0 -27.333 -5.33301 -53 -16 -77s-25 -45 -43 -63s-39 -32.167 -63 -42.5
s-49.333 -15.5 -76 -15.5c-27.333 0 -53 5.16699 -77 15.5s-45 24.5 -63 42.5s-32.167 39 -42.5 63s-15.5 49.667 -15.5 77c0 26.667 5.16699 52 15.5 76s24.5 45 42.5 63s39 32.333 63 43s49.667 16 77 16zM311.996 81c33.333 0 60.667 10.668 82 32.001
s32 48.666 32 81.999c0 14.667 -2.83301 29 -8.5 43s-13.5 26.167 -23.5 36.5s-22 18.666 -36 24.999s-29.333 9.5 -46 9.5c-15.333 0 -29.833 -3.16699 -43.5 -9.5s-25.667 -14.666 -36 -24.999s-18.666 -22.5 -24.999 -36.5s-9.5 -28.333 -9.5 -43
c0 -16.667 3.16699 -32 9.5 -46s14.666 -26 24.999 -36s22.333 -17.833 36 -23.5s28.167 -8.5 43.5 -8.5z" />
    <glyph glyph-name="nine" unicode="9" horiz-adv-x="753" 
d="M531 416c-13.333 0 -25.8291 2.66699 -37.4961 8s-21.834 12.5 -30.501 21.5s-15.5 19.333 -20.5 31s-7.5 23.5 -7.5 35.5c0 27.333 9.16699 50.166 27.5 68.499s41.166 27.5 68.499 27.5s50.166 -9.16699 68.499 -27.5s27.5 -41.166 27.5 -68.499
c0 -12 -2.5 -23.833 -7.5 -35.5s-11.833 -22 -20.5 -31s-18.834 -16.167 -30.501 -21.5s-24.167 -8 -37.5 -8zM135.004 248c-9.33301 0 -18.666 3.99902 -27.999 11.999s-14 18 -14 30v306c0 12 4.66699 22 14 30s18.666 12 27.999 12c12 0 22 -4 30 -12s12 -18 12 -30v-264
h438c12 0 22 -4.66699 30 -14s12 -18.666 12 -27.999v-246c0 -9.33301 -4 -18.666 -12 -27.999s-18 -14 -30 -14s-22 4.66699 -30 14s-12 18.666 -12 27.999v204h-438z" />
    <glyph glyph-name="colon" unicode=":" horiz-adv-x="409" 
d="M201 411c-27.333 0 -53.168 8.16699 -77.501 24.5s-42.5 38.166 -54.5 65.499c-3.33301 6 -6.16602 13.5 -8.49902 22.5s-3.5 19.5 -3.5 31.5c0 19.333 3.83301 37.833 11.5 55.5s18 33 31 46s28.333 23.333 46 31s36.167 11.5 55.5 11.5s37.833 -3.83301 55.5 -11.5
s33 -18 46 -31s23.333 -28.333 31 -46s11.5 -36.167 11.5 -55.5c0 -21.333 -3.83301 -40.666 -11.5 -57.999s-18 -32.5 -31 -45.5s-28.333 -23 -46 -30s-36.167 -10.5 -55.5 -10.5zM200.998 615c-15.333 0 -29.165 -6.16699 -41.498 -18.5s-18.5 -26.166 -18.5 -41.499
c0 -3.33301 0.166992 -6.33301 0.5 -9s2.16602 -5.66699 5.49902 -9c3.33301 -12 10.166 -22 20.499 -30s21.5 -12 33.5 -12c18 0 32.5 5.5 43.5 16.5s16.5 25.5 16.5 43.5c0 15.333 -5.5 29.166 -16.5 41.499s-25.5 18.5 -43.5 18.5zM200.999 381
c19.333 0 37.8311 -3.83105 55.498 -11.498s33 -18 46 -31s23.333 -28.333 31 -46s11.5 -36.167 11.5 -55.5s-3.83301 -37.833 -11.5 -55.5s-18 -33 -31 -46s-28.333 -23.333 -46 -31s-36.167 -11.5 -55.5 -11.5c-27.333 0 -53.166 8.16699 -77.499 24.5
s-42.5 38.166 -54.5 65.499c-3.33301 9.33301 -6.16602 17.666 -8.49902 24.999s-3.5 17 -3.5 29c0 19.333 3.83301 37.833 11.5 55.5s18 33 31 46s28.333 23.333 46 31s36.167 11.5 55.5 11.5zM200.997 177.002c18 0 32.501 6.16602 43.501 18.499s16.5 26.166 16.5 41.499
c0 18 -5.5 32.5 -16.5 43.5s-25.5 16.5 -43.5 16.5c-15.333 0 -29.166 -5.5 -41.499 -16.5s-18.5 -25.5 -18.5 -43.5c0 -3.33301 0.166992 -5.66602 0.5 -6.99902s2.16602 -5 5.49902 -11c3.33301 -9.33301 10.166 -18.666 20.499 -27.999s21.5 -14 33.5 -14z" />
    <glyph glyph-name="semicolon" unicode=";" horiz-adv-x="413" 
d="M196 409c-27.333 0 -53.166 8.16699 -77.499 24.5s-42.5 38.166 -54.5 65.499c-6 6 -9.5 13.5 -10.5 22.5s-1.5 19.5 -1.5 31.5c0 19.333 3.5 37.833 10.5 55.5s17 33 30 46s28.167 23.333 45.5 31s36.666 11.5 57.999 11.5c19.333 0 37.833 -3.83301 55.5 -11.5
s33 -18 46 -31s23.333 -28.333 31 -46s11.5 -36.167 11.5 -55.5c0 -21.333 -3.83301 -40.666 -11.5 -57.999s-18 -32.5 -31 -45.5s-28.333 -23 -46 -30s-36.167 -10.5 -55.5 -10.5zM196 613c-18 0 -32.499 -6.16699 -43.499 -18.5s-16.5 -26.166 -16.5 -41.499v-18
c6 -12 13.667 -22 23 -30s21.666 -12 36.999 -12s29.166 5.5 41.499 16.5s18.5 25.5 18.5 43.5c0 15.333 -6.16699 29.166 -18.5 41.499s-26.166 18.5 -41.499 18.5zM196.001 373c19.333 0 37.8311 -3.8291 55.498 -11.4961s33 -18 46 -31s23.333 -28.333 31 -46
s11.5 -36.167 11.5 -55.5c0 -16.667 -2.83301 -32.334 -8.5 -47.001s-13.167 -28 -22.5 -40s-20.166 -22.333 -32.499 -31s-25.166 -15.334 -38.499 -20.001v-46c0 -12 -4.66699 -22 -14 -30s-18.666 -12 -27.999 -12c-12 0 -22 4 -30 12s-12 18 -12 30v46
c-21.333 9.33301 -39.333 21.166 -54 35.499s-26.667 30.5 -36 48.5c-6 9.33301 -9.5 17.666 -10.5 24.999s-1.5 17 -1.5 29c0 19.333 3.5 37.833 10.5 55.5s17 33 30 46s28.167 23.333 45.5 31s36.666 11.5 57.999 11.5zM195.999 169.004
c15.333 0 29.167 6.16699 41.5 18.5s18.5 26.166 18.5 41.499c0 18 -6.16699 32.5 -18.5 43.5s-26.166 16.5 -41.499 16.5c-18 0 -32.5 -5.5 -43.5 -16.5s-16.5 -25.5 -16.5 -43.5v-18c6 -9.33301 13.667 -18.666 23 -27.999s21.666 -14 36.999 -14z" />
    <glyph glyph-name="less" unicode="&#x3c;" horiz-adv-x="655" 
d="M564 98c12 -6 19.333 -14.1689 22 -24.502s-0.666016 -20.166 -9.99902 -29.499c-6 -12 -14.167 -19.5 -24.5 -22.5s-20.166 -1.5 -29.499 4.5l-444 282c-12 12 -18 24 -18 36c0 18 6 30 18 36l444 282c9.33301 6 19.166 7.83301 29.499 5.5s18.5 -8.16602 24.5 -17.499
c9.33301 -12 12.666 -23.5 9.99902 -34.5s-10 -19.5 -22 -25.5l-384 -246l384 -246v0z" />
    <glyph glyph-name="equal" unicode="=" horiz-adv-x="498" 
d="M117 372c-12 0 -22 4 -30 12s-12 18 -12 30s4 22 12 30s18 12 30 12h252c12 0 22 -4 30 -12s12 -18 12 -30s-4 -22 -12 -30s-18 -12 -30 -12h-252zM369 294c12 0 22 -4.66699 30 -14s12 -18.666 12 -27.999c0 -12 -4 -22 -12 -30s-18 -12 -30 -12h-252
c-12 0 -22 4 -30 12s-12 18 -12 30c0 9.33301 4 18.666 12 27.999s18 14 30 14h252z" />
    <glyph glyph-name="greater" unicode="&#x3e;" horiz-adv-x="655" 
d="M90 98l384 246.002l-384 246c-12 6 -19.333 14.5 -22 25.5s0.666016 22.5 9.99902 34.5c6 9.33301 14.167 15.166 24.5 17.499s20.166 0.5 29.499 -5.5l444 -282c12 -6 18 -18 18 -36c0 -12 -6 -24 -18 -36l-444 -282c-9.33301 -6 -19.166 -7.5 -29.499 -4.5
s-18.5 10.5 -24.5 22.5c-9.33301 9.33301 -12.666 19.166 -9.99902 29.499s10 18.5 22 24.5z" />
    <glyph glyph-name="question" unicode="?" horiz-adv-x="732" 
d="M354 290c19.333 0 37.832 -3.83301 55.499 -11.5s33 -18 46 -31s23.333 -28.333 31 -46s11.5 -36.167 11.5 -55.5c0 -21.333 -3.83301 -40.666 -11.5 -57.999s-18 -32.5 -31 -45.5s-28.333 -23 -46 -30s-36.167 -10.5 -55.5 -10.5
c-27.333 0 -53.166 8.16699 -77.499 24.5s-42.5 38.166 -54.5 65.499c-3.33301 6 -6.16602 13.5 -8.49902 22.5s-3.5 19.5 -3.5 31.5c0 19.333 3.5 37.833 10.5 55.5s17 33 30 46s28.167 23.333 45.5 31s36.666 11.5 57.999 11.5zM353.999 86
c15.333 0 29.166 5.5 41.499 16.5s18.5 25.5 18.5 43.5c0 15.333 -6.16699 29.166 -18.5 41.499s-26.166 18.5 -41.499 18.5c-18 0 -32.5 -6.16699 -43.5 -18.5s-16.5 -26.166 -16.5 -41.499v-18c6 -12 14.5 -22 25.5 -30s22.5 -12 34.5 -12zM641.999 632
c3.33301 -6 3.66699 -13.6689 1 -23.002s-7 -15.666 -13 -18.999l-246 -234c-9.33301 -9.33301 -20.166 -14 -32.499 -14s-21.5 4.66699 -27.5 14c-9.33301 9.33301 -14 19.333 -14 30s4.66699 20.667 14 30l174 162h-384c-12 0 -22 4 -30 12s-12 18 -12 30s4 22 12 30
s18 12 30 12h492c6 0 12.667 -2.66699 20 -8s12.666 -12.666 15.999 -21.999z" />
    <glyph glyph-name="at" unicode="@" horiz-adv-x="781" 
d="M367 375c0 -18 6.16699 -32.5 18.5 -43.5s26.166 -16.5 41.499 -16.5s28.166 5.5 38.499 16.5s15.5 25.5 15.5 43.5c0 15.333 -5.16699 28.166 -15.5 38.499s-23.166 15.5 -38.499 15.5s-29.166 -5.16699 -41.499 -15.5s-18.5 -23.166 -18.5 -38.499zM553 441
c6 -9.33301 10.501 -19.6699 13.501 -31.0029s4.5 -23 4.5 -35c0 -21.333 -3.83301 -41 -11.5 -59s-18 -33.833 -31 -47.5s-28.333 -24.334 -46 -32.001s-36.167 -11.5 -55.5 -11.5c-21.333 0 -41 3.83301 -59 11.5s-33.833 18.334 -47.5 32.001s-24.334 29.5 -32.001 47.5
s-11.5 37.667 -11.5 59c0 19.333 3.83301 37.833 11.5 55.5s18.334 33 32.001 46s29.5 23.333 47.5 31s37.667 11.5 59 11.5c12 0 23 -1.16699 33 -3.5s21 -5.16602 33 -8.49902l60 72c-21.333 15.333 -43.666 26.166 -66.999 32.499s-47 9.5 -71 9.5c-36 0 -70 -7 -102 -21
s-60 -33 -84 -57s-43 -52 -57 -84s-21 -66 -21 -102s7 -70 21 -102s33 -60 57 -84s52 -43 84 -57s66 -21 102 -21c30 0 58.5 5.5 85.5 16.5s52.5 25.5 76.5 43.5c9.33301 9.33301 20.166 13 32.499 11s21.5 -7.66699 27.5 -17c9.33301 -9.33301 13 -20.166 11 -32.499
s-7.66699 -21.5 -17 -27.5c-30 -27.333 -63.667 -48.166 -101 -62.499s-75.666 -21.5 -114.999 -21.5c-49.333 0 -95.5 9.5 -138.5 28.5s-80.5 44.5 -112.5 76.5s-57.167 69.5 -75.5 112.5s-27.5 88.5 -27.5 136.5c0 49.333 9.16699 95.5 27.5 138.5s43.5 80.5 75.5 112.5
s69.5 57.167 112.5 75.5s89.167 27.5 138.5 27.5c33.333 0 66.833 -4.66699 100.5 -14s64.167 -24.666 91.5 -45.999l24 24c12 10 23.833 14.833 35.5 14.5s21.167 -4 28.5 -11s11.666 -16.333 12.999 -28s-2.33398 -23.5 -11.001 -35.5z" />
    <glyph glyph-name="A" unicode="A" horiz-adv-x="833" 
d="M420 311c20.667 0 40.167 -3.83301 58.5 -11.5s34.333 -18 48 -31s24.334 -28.333 32.001 -46s11.5 -36.167 11.5 -55.5c0 -21.333 -3.83301 -41 -11.5 -59s-18.334 -33.833 -32.001 -47.5s-29.667 -24.334 -48 -32.001s-37.833 -11.5 -58.5 -11.5
c-19.333 0 -37.833 3.83301 -55.5 11.5s-33 18.334 -46 32.001s-23.333 29.5 -31 47.5s-11.5 37.667 -11.5 59c0 19.333 3.83301 37.833 11.5 55.5s18 33 31 46s28.333 23.333 46 31s36.167 11.5 55.5 11.5zM420 107c15.333 0 29.166 5.5 41.499 16.5s18.5 25.5 18.5 43.5
c0 15.333 -6.16699 28.166 -18.5 38.499s-26.166 15.5 -41.499 15.5s-28.166 -5.16699 -38.499 -15.5s-15.5 -23.166 -15.5 -38.499c0 -18 5.16699 -32.5 15.5 -43.5s23.166 -16.5 38.499 -16.5zM756 65c6 -9.33301 6.49902 -20.166 1.49902 -32.499
s-13.5 -21.5 -25.5 -27.5c-9.33301 -3.33301 -20.166 -3.16602 -32.499 0.500977s-21.5 11.5 -27.5 23.5l-252 528l-252 -528c-6 -12 -15.167 -19.833 -27.5 -23.5s-23.166 -3.83398 -32.499 -0.500977c-12 6 -20.5 15.167 -25.5 27.5s-4.5 23.166 1.5 32.499l294 618
c6 9.33301 12.167 15.666 18.5 18.999s14.166 5 23.499 5s17.833 -1.66699 25.5 -5s13.167 -9.66602 16.5 -18.999z" />
    <glyph glyph-name="B" unicode="B" horiz-adv-x="623" 
d="M380 380c-21.333 0 -41 3.83301 -59 11.5s-33.833 18.334 -47.5 32.001s-24.334 29.5 -32.001 47.5s-11.5 37.667 -11.5 59c0 19.333 3.83301 37.833 11.5 55.5s18.334 33 32.001 46s29.5 23.333 47.5 31s37.667 11.5 59 11.5c19.333 0 37.833 -3.83301 55.5 -11.5
s33 -18 46 -31s23.333 -28.333 31 -46s11.5 -36.167 11.5 -55.5c0 -21.333 -3.83301 -41 -11.5 -59s-18 -33.833 -31 -47.5s-28.333 -24.334 -46 -32.001s-36.167 -11.5 -55.5 -11.5zM380 584c-18 0 -32.5 -5.16699 -43.5 -15.5s-16.5 -23.166 -16.5 -38.499
s5.5 -29.166 16.5 -41.499s25.5 -18.5 43.5 -18.5c15.333 0 28.166 6.16699 38.499 18.5s15.5 26.166 15.5 41.499s-5.16699 28.166 -15.5 38.499s-23.166 15.5 -38.499 15.5zM380 362c19.333 0 37.833 -3.83301 55.5 -11.5s33 -18.334 46 -32.001s23.333 -29.667 31 -48
s11.5 -37.833 11.5 -58.5c0 -21.333 -3.83301 -41 -11.5 -59s-18 -33.833 -31 -47.5s-28.333 -24.334 -46 -32.001s-36.167 -11.5 -55.5 -11.5c-21.333 0 -41 3.83301 -59 11.5s-33.833 18.334 -47.5 32.001s-24.334 29.5 -32.001 47.5s-11.5 37.667 -11.5 59
c0 20.667 3.83301 40.167 11.5 58.5s18.334 34.333 32.001 48s29.5 24.334 47.5 32.001s37.667 11.5 59 11.5zM380 152c15.333 0 28.166 6.16699 38.499 18.5s15.5 26.166 15.5 41.499s-5.16699 29.166 -15.5 41.499s-23.166 18.5 -38.499 18.5
c-18 0 -32.5 -6.16699 -43.5 -18.5s-16.5 -26.166 -16.5 -41.499s5.5 -29.166 16.5 -41.499s25.5 -18.5 43.5 -18.5zM104 722c12 0 22 -4 30 -12s12 -18 12 -30v-612c0 -12 -4 -23 -12 -33s-18 -15 -30 -15s-23 5 -33 15s-15 21 -15 33v612c0 12 5 22 15 30s21 12 33 12z
" />
    <glyph glyph-name="C" unicode="C" horiz-adv-x="716" 
d="M278 341c0 20.667 3.83301 40.167 11.5 58.5s18 34.333 31 48s28.333 24.334 46 32.001s36.167 11.5 55.5 11.5c20.667 0 40.167 -3.83301 58.5 -11.5s34.333 -18.334 48 -32.001s24.334 -29.667 32.001 -48s11.5 -37.833 11.5 -58.5
c0 -19.333 -3.83301 -37.833 -11.5 -55.5s-18.334 -33 -32.001 -46s-29.667 -23.333 -48 -31s-37.833 -11.5 -58.5 -11.5c-19.333 0 -37.833 3.83301 -55.5 11.5s-33 18 -46 31s-23.333 28.333 -31 46s-11.5 36.167 -11.5 55.5zM482 341c0 18 -5.5 32.5 -16.5 43.5
s-25.5 16.5 -43.5 16.5c-15.333 0 -28.166 -5.5 -38.499 -16.5s-15.5 -25.5 -15.5 -43.5c0 -15.333 5.16699 -28.166 15.5 -38.499s23.166 -15.5 38.499 -15.5c18 0 32.5 5.16699 43.5 15.5s16.5 23.166 16.5 38.499zM638 569
c-9.33301 -9.33301 -20.3311 -15.0029 -32.998 -17.0029s-23.667 1.66699 -33 11c-24 18 -49.5 32.5 -76.5 43.5s-55.5 16.5 -85.5 16.5c-36 0 -69.667 -7 -101 -21s-58.666 -33 -81.999 -57s-41.666 -52 -54.999 -84s-20 -66 -20 -102s6.66699 -70 20 -102
s31.666 -60 54.999 -84s50.666 -43 81.999 -57s65 -21 101 -21c27.333 0 53.833 4.16699 79.5 12.5s49.167 20.166 70.5 35.499c12 9.33301 23.667 13 35 11s21.666 -7.66699 30.999 -17c6 -12 8.5 -23.667 7.5 -35s-7.5 -21.666 -19.5 -30.999
c-30 -21.333 -62.5 -37.666 -97.5 -48.999s-70.5 -17 -106.5 -17c-48 0 -93.167 9.16699 -135.5 27.5s-79.166 43.5 -110.499 75.5s-56.166 69.5 -74.499 112.5s-27.5 89.167 -27.5 138.5c0 48 9.16699 93.5 27.5 136.5s43.166 80.5 74.499 112.5s68.166 57.5 110.499 76.5
s87.5 28.5 135.5 28.5c39.333 0 77.833 -7.16699 115.5 -21.5s73.167 -35.166 106.5 -62.499c9.33301 -6 14.166 -15.167 14.499 -27.5s-2.5 -23.166 -8.5 -32.499z" />
    <glyph glyph-name="D" unicode="D" horiz-adv-x="704" 
d="M274 193c-19.333 0 -37.833 3.83301 -55.5 11.5s-33 18.334 -46 32.001s-23.333 29.5 -31 47.5s-11.5 37.667 -11.5 59c0 19.333 3.83301 37.833 11.5 55.5s18 33 31 46s28.333 23.333 46 31s36.167 11.5 55.5 11.5c20.667 0 40.167 -3.83301 58.5 -11.5
s34.333 -18 48 -31s24.334 -28.333 32.001 -46s11.5 -36.167 11.5 -55.5c0 -21.333 -3.83301 -41 -11.5 -59s-18.334 -33.833 -32.001 -47.5s-29.667 -24.334 -48 -32.001s-37.833 -11.5 -58.5 -11.5zM274 397c-15.333 0 -28.166 -5.16699 -38.499 -15.5
s-15.5 -23.166 -15.5 -38.499c0 -18 5.16699 -32.5 15.5 -43.5s23.166 -16.5 38.499 -16.5s29.166 5.5 41.499 16.5s18.5 25.5 18.5 43.5c0 15.333 -6.16699 28.166 -18.5 38.499s-26.166 15.5 -41.499 15.5zM286 709c49.333 0 95.502 -9.49707 138.502 -28.4971
s80.5 -44.5 112.5 -76.5s57.167 -69.5 75.5 -112.5s27.5 -88.5 27.5 -136.5c0 -49.333 -9.16699 -95.5 -27.5 -138.5s-43.5 -80.5 -75.5 -112.5s-69.5 -57.167 -112.5 -75.5s-89.167 -27.5 -138.5 -27.5c-36 0 -71.5 5.66699 -106.5 17s-67.5 27.666 -97.5 48.999
c-9.33301 9.33301 -15 19.666 -17 30.999s1.66699 23 11 35c6 9.33301 15.167 15 27.5 17s23.166 -1.66699 32.499 -11c24 -15.333 48.167 -27.166 72.5 -35.499s50.166 -12.5 77.499 -12.5c36 0 70 7 102 21s60 33 84 57s43 52 57 84s21 66 21 102s-7 70 -21 102
s-33 60 -57 84s-52 43 -84 57s-66 21 -102 21c-30 0 -58.5 -5.5 -85.5 -16.5s-52.5 -25.5 -76.5 -43.5c-9.33301 -9.33301 -20.166 -13 -32.499 -11s-21.5 7.66699 -27.5 17c-9.33301 9.33301 -13 20.166 -11 32.499s7.66699 21.5 17 27.5
c30 27.333 63.667 48.166 101 62.499s75.666 21.5 114.999 21.5z" />
    <glyph glyph-name="E" unicode="E" horiz-adv-x="660" 
d="M183 344c0 19.333 3.83301 37.833 11.5 55.5s18 33 31 46s28.333 23.333 46 31s36.167 11.5 55.5 11.5c20.667 0 40.167 -3.83301 58.5 -11.5s34.333 -18 48 -31s24.334 -28.333 32.001 -46s11.5 -36.167 11.5 -55.5c0 -21.333 -3.83301 -41 -11.5 -59
s-18.334 -33.833 -32.001 -47.5s-29.667 -24.334 -48 -32.001s-37.833 -11.5 -58.5 -11.5c-19.333 0 -37.833 3.83301 -55.5 11.5s-33 18.334 -46 32.001s-23.333 29.5 -31 47.5s-11.5 37.667 -11.5 59zM387 344c0 15.333 -6.16699 28.166 -18.5 38.499
s-26.166 15.5 -41.499 15.5s-28.166 -5.16699 -38.499 -15.5s-15.5 -23.166 -15.5 -38.499s5.16699 -29.166 15.5 -41.499s23.166 -18.5 38.499 -18.5s29.166 6.16699 41.499 18.5s18.5 26.166 18.5 41.499zM549 92c12 0 23 -5 33 -15s15 -21 15 -33s-5 -22 -15 -30
s-21 -12 -33 -12h-444c-12 0 -23 4 -33 12s-15 18 -15 30v594c0 12 5 22 15 30s21 12 33 12h444c12 0 23 -4 33 -12s15 -18 15 -30s-5 -23 -15 -33s-21 -15 -33 -15h-402v-498h402z" />
    <glyph glyph-name="F" unicode="F" horiz-adv-x="684" 
d="M350 492c20.667 0 40.167 -3.83301 58.5 -11.5s34.333 -18 48 -31s24.334 -28.333 32.001 -46s11.5 -36.167 11.5 -55.5c0 -21.333 -3.83301 -41 -11.5 -59s-18.334 -33.833 -32.001 -47.5s-29.667 -24.334 -48 -32.001s-37.833 -11.5 -58.5 -11.5
c-19.333 0 -37.833 3.83301 -55.5 11.5s-33 18.334 -46 32.001s-23.333 29.5 -31 47.5s-11.5 37.667 -11.5 59c0 19.333 3.83301 37.833 11.5 55.5s18 33 31 46s28.333 23.333 46 31s36.167 11.5 55.5 11.5zM350 288c15.333 0 29.166 6.16699 41.499 18.5
s18.5 26.166 18.5 41.499s-6.16699 28.166 -18.5 38.499s-26.166 15.5 -41.499 15.5s-28.166 -5.16699 -38.499 -15.5s-15.5 -23.166 -15.5 -38.499s5.16699 -29.166 15.5 -41.499s23.166 -18.5 38.499 -18.5zM572 684c12 0 23 -4 33 -12s15 -18 15 -30s-5 -23 -15 -33
s-21 -15 -33 -15h-402v-546c0 -12 -4 -22 -12 -30s-18 -12 -30 -12s-23 4 -33 12s-15 18 -15 30v594c0 12 5 22 15 30s21 12 33 12h444z" />
    <glyph glyph-name="G" unicode="G" horiz-adv-x="781" 
d="M367 339c0 -15.333 6.16699 -28.166 18.5 -38.499s26.166 -15.5 41.499 -15.5s28.166 5.16699 38.499 15.5s15.5 23.166 15.5 38.499c0 18 -5.16699 32.5 -15.5 43.5s-23.166 16.5 -38.499 16.5s-29.166 -5.5 -41.499 -16.5s-18.5 -25.5 -18.5 -43.5zM697 99
c9.33301 -12 13.668 -23.6719 13.001 -35.0049s-7 -21.666 -19 -30.999c-9.33301 -9.33301 -19.333 -13 -30 -11s-20.667 7.66699 -30 17l-24 24c-27.333 -21.333 -57.833 -36.666 -91.5 -45.999s-67.167 -14 -100.5 -14c-49.333 0 -95.5 9.16699 -138.5 27.5
s-80.5 43.5 -112.5 75.5s-57.167 69.5 -75.5 112.5s-27.5 89.167 -27.5 138.5c0 48 9.16699 93.5 27.5 136.5s43.5 80.5 75.5 112.5s69.5 57.5 112.5 76.5s89.167 28.5 138.5 28.5c39.333 0 77.666 -7.16699 114.999 -21.5s71 -35.166 101 -62.499
c9.33301 -6 15 -15.167 17 -27.5s-1.66699 -23.166 -11 -32.499c-6 -9.33301 -15.167 -15 -27.5 -17s-23.166 1.66699 -32.499 11c-24 18 -49.5 32.5 -76.5 43.5s-55.5 16.5 -85.5 16.5c-36 0 -70 -7 -102 -21s-60 -33 -84 -57s-43 -52 -57 -84s-21 -66 -21 -102
s7 -70 21 -102s33 -60 57 -84s52 -43 84 -57s66 -21 102 -21c24 0 47.667 3.16699 71 9.5s45.666 17.166 66.999 32.499l-60 72c-12 -3.33301 -23 -6.16602 -33 -8.49902s-21 -3.5 -33 -3.5c-21.333 0 -41 3.83301 -59 11.5s-33.833 18 -47.5 31s-24.334 28.333 -32.001 46
s-11.5 36.167 -11.5 55.5c0 20.667 3.83301 40.167 11.5 58.5s18.334 34.333 32.001 48s29.5 24.334 47.5 32.001s37.667 11.5 59 11.5c19.333 0 37.833 -3.83301 55.5 -11.5s33 -18.334 46 -32.001s23.333 -29.667 31 -48s11.5 -37.833 11.5 -58.5
c0 -12 -1.5 -23.667 -4.5 -35s-7.5 -21.666 -13.5 -30.999z" />
    <glyph glyph-name="H" unicode="H" horiz-adv-x="716" 
d="M354 497c20.667 0 40.167 -3.83301 58.5 -11.5s34.333 -18 48 -31s24.334 -28.333 32.001 -46s11.5 -36.167 11.5 -55.5c0 -21.333 -3.83301 -41 -11.5 -59s-18.334 -33.833 -32.001 -47.5s-29.667 -24.334 -48 -32.001s-37.833 -11.5 -58.5 -11.5
c-19.333 0 -37.833 3.83301 -55.5 11.5s-33 18.334 -46 32.001s-23.333 29.5 -31 47.5s-11.5 37.667 -11.5 59c0 19.333 3.83301 37.833 11.5 55.5s18 33 31 46s28.333 23.333 46 31s36.167 11.5 55.5 11.5zM354 293c18 0 32.5 6.16699 43.5 18.5s16.5 26.166 16.5 41.499
s-5.5 28.166 -16.5 38.499s-25.5 15.5 -43.5 15.5c-15.333 0 -28.166 -5.16699 -38.499 -15.5s-15.5 -23.166 -15.5 -38.499s5.16699 -29.166 15.5 -41.499s23.166 -18.5 38.499 -18.5zM114 701c12 0 22 -4.16699 30 -12.5s12 -20.166 12 -35.499v-606c0 -12 -4 -22 -12 -30
s-18 -12 -30 -12s-23 4 -33 12s-15 18 -15 30v606c0 15.333 5 27.166 15 35.499s21 12.5 33 12.5zM600 701c12 0 22 -4.16699 30 -12.5s12 -20.166 12 -35.499v-606c0 -12 -4 -22 -12 -30s-18 -12 -30 -12s-23 4 -33 12s-15 18 -15 30v606c0 15.333 5 27.166 15 35.499
s21 12.5 33 12.5z" />
    <glyph glyph-name="I" unicode="I" horiz-adv-x="502" 
d="M249 696c19.333 0 38 -3.83301 56 -11.5s34 -18 48 -31s25.167 -28.333 33.5 -46s12.5 -36.167 12.5 -55.5c0 -21.333 -4.16699 -41 -12.5 -59s-19.5 -33.833 -33.5 -47.5s-30 -24.334 -48 -32.001s-36.667 -11.5 -56 -11.5c-21.333 0 -41 3.83301 -59 11.5
s-33.833 18.334 -47.5 32.001s-24.334 29.5 -32.001 47.5s-11.5 37.667 -11.5 59c0 19.333 3.83301 37.833 11.5 55.5s18.334 33 32.001 46s29.5 23.333 47.5 31s37.667 11.5 59 11.5zM249 492c15.333 0 29.166 6.16699 41.499 18.5s18.5 26.166 18.5 41.499
s-6.16699 28.166 -18.5 38.499s-26.166 15.5 -41.499 15.5s-29.166 -5.16699 -41.499 -15.5s-18.5 -23.166 -18.5 -38.499s6.16699 -29.166 18.5 -41.499s26.166 -18.5 41.499 -18.5zM249 372c12 0 22 -4.16699 30 -12.5s12 -20.166 12 -35.499v-276c0 -12 -4 -22 -12 -30
s-18 -12 -30 -12s-23 4 -33 12s-15 18 -15 30v276c0 15.333 5 27.166 15 35.499s21 12.5 33 12.5z" />
    <glyph glyph-name="J" unicode="J" horiz-adv-x="643" 
d="M415 688c19.333 0 37.833 -3.83301 55.5 -11.5s33 -18 46 -31s23.333 -28.333 31 -46s11.5 -36.167 11.5 -55.5c0 -21.333 -3.83301 -41 -11.5 -59s-18 -33.833 -31 -47.5s-28.333 -24.334 -46 -32.001s-36.167 -11.5 -55.5 -11.5c-21.333 0 -41 3.83301 -59 11.5
s-33.833 18.334 -47.5 32.001s-24.334 29.5 -32.001 47.5s-11.5 37.667 -11.5 59c0 19.333 3.83301 37.833 11.5 55.5s18.334 33 32.001 46s29.5 23.333 47.5 31s37.667 11.5 59 11.5zM415 484c15.333 0 28.166 6.16699 38.499 18.5s15.5 26.166 15.5 41.499
s-5.16699 28.166 -15.5 38.499s-23.166 15.5 -38.499 15.5s-29.166 -5.16699 -41.499 -15.5s-18.5 -23.166 -18.5 -38.499s6.16699 -29.166 18.5 -41.499s26.166 -18.5 41.499 -18.5zM415 364c12 0 22 -4.16602 30 -12.499s12 -20.166 12 -35.499v-276c0 -12 -4 -22 -12 -30
s-18 -12 -30 -12h-294c-12 0 -23 4 -33 12s-15 18 -15 30c0 15.333 5 27.166 15 35.499s21 12.5 33 12.5h246v228c0 15.333 5 27.166 15 35.499s21 12.5 33 12.5z" />
    <glyph glyph-name="K" unicode="K" horiz-adv-x="749" 
d="M115 695c12 0 22 -5 30 -15s12 -21 12 -33v-600c0 -12 -4 -22 -12 -30s-18 -12 -30 -12s-23 4 -33 12s-15 18 -15 30v600c0 12 5 23 15 33s21 15 33 15zM535 473c-9.33301 -6 -19.333 -8.99902 -30 -8.99902s-20.667 3 -30 9c-9.33301 9.33301 -14 20.333 -14 33
s4.66699 23.667 14 33l126 126c9.33301 9.33301 19.333 14.166 30 14.499s20.667 -2.5 30 -8.5c9.33301 -9.33301 14 -20.333 14 -33s-4.66699 -23.667 -14 -33zM661 89.001c9.33301 -9.33301 13.9971 -20.335 13.9971 -33.002s-4.66699 -23.667 -14 -33
s-19.333 -14 -30 -14s-20.667 4.66699 -30 14l-198 198c-12 -6 -24.167 -11.5 -36.5 -16.5s-26.166 -7.5 -41.499 -7.5c-19.333 0 -37.833 3.83301 -55.5 11.5s-33 18.334 -46 32.001s-23.333 29.5 -31 47.5s-11.5 37.667 -11.5 59c0 19.333 3.83301 37.833 11.5 55.5
s18 33 31 46s28.333 23.333 46 31s36.167 11.5 55.5 11.5c20.667 0 40.167 -3.83301 58.5 -11.5s34.333 -18 48 -31s24.334 -28.333 32.001 -46s11.5 -36.167 11.5 -55.5c0 -12 -1.16699 -22.667 -3.5 -32s-5.16602 -18.666 -8.49902 -27.999zM324.997 286.999
c18 0 32.5 6.16699 43.5 18.5s16.5 26.166 16.5 41.499s-5.5 28.166 -16.5 38.499s-25.5 15.5 -43.5 15.5c-15.333 0 -28.166 -5.16699 -38.499 -15.5s-15.5 -23.166 -15.5 -38.499s5.16699 -29.166 15.5 -41.499s23.166 -18.5 38.499 -18.5z" />
    <glyph glyph-name="L" unicode="L" horiz-adv-x="745" 
d="M403 143c-19.333 0 -37.833 3.83301 -55.5 11.5s-33 18 -46 31s-23.333 28.333 -31 46s-11.5 36.167 -11.5 55.5c0 20.667 3.83301 40.167 11.5 58.5s18 34.333 31 48s28.333 24.334 46 32.001s36.167 11.5 55.5 11.5c20.667 0 40.167 -3.83301 58.5 -11.5
s34.333 -18.334 48 -32.001s24.334 -29.667 32.001 -48s11.5 -37.833 11.5 -58.5c0 -19.333 -3.83301 -37.833 -11.5 -55.5s-18.334 -33 -32.001 -46s-29.667 -23.333 -48 -31s-37.833 -11.5 -58.5 -11.5zM403 347c-15.333 0 -28.166 -5.5 -38.499 -16.5
s-15.5 -25.5 -15.5 -43.5c0 -15.333 5.16699 -28.166 15.5 -38.499s23.166 -15.5 38.499 -15.5c18 0 32.5 5.16699 43.5 15.5s16.5 23.166 16.5 38.499c0 18 -5.5 32.5 -16.5 43.5s-25.5 16.5 -43.5 16.5zM607 89c12 0 22 -4.16797 30 -12.501s12 -20.166 12 -35.499
c0 -12 -4 -22 -12 -30s-18 -12 -30 -12h-450c-12 0 -23 4 -33 12s-15 18 -15 30v600c0 15.333 5 27.166 15 35.499s21 12.5 33 12.5s22 -4.16699 30 -12.5s12 -20.166 12 -35.499v-552h408z" />
    <glyph glyph-name="M" unicode="M" horiz-adv-x="777" 
d="M383 484c19.333 0 37.835 -3.83008 55.502 -11.4971s33 -18.334 46 -32.001s23.333 -29.667 31 -48s11.5 -37.833 11.5 -58.5c0 -19.333 -3.83301 -37.833 -11.5 -55.5s-18 -33 -31 -46s-28.333 -23.333 -46 -31s-36.167 -11.5 -55.5 -11.5
c-21.333 0 -41 3.83301 -59 11.5s-33.833 18 -47.5 31s-24.334 28.333 -32.001 46s-11.5 36.167 -11.5 55.5c0 15.333 2.5 29.833 7.5 43.5s10.5 25.167 16.5 34.5l-84 108v-468c0 -15.333 -4.16699 -27.166 -12.5 -35.499s-20.166 -12.5 -35.499 -12.5
c-12 0 -22 4.16699 -30 12.5s-12 20.166 -12 35.499v600c0 9.33301 2.66699 17.833 8 25.5s12.666 13.167 21.999 16.5s18.166 3.66602 26.499 0.999023s15.5 -7 21.5 -13l168 -210c9.33301 3.33301 18.333 6.16602 27 8.49902s17.667 3.5 27 3.5zM383.002 280.003
c15.333 0 28.166 5.16699 38.499 15.5s15.5 23.166 15.5 38.499c0 18 -5.16699 32.5 -15.5 43.5s-23.166 16.5 -38.499 16.5s-29.166 -5.5 -41.499 -16.5s-18.5 -25.5 -18.5 -43.5c0 -15.333 6.16699 -28.166 18.5 -38.499s26.166 -15.5 41.499 -15.5zM653.002 694.003
c9.33301 -3.33301 16.666 -8.83301 21.999 -16.5s8 -16.167 8 -25.5v-600c0 -15.333 -4.16699 -27.166 -12.5 -35.499s-20.166 -12.5 -35.499 -12.5c-12 0 -22 4.16699 -30 12.5s-12 20.166 -12 35.499v474l-24 -24c-6 -9.33301 -15.167 -15 -27.5 -17
s-23.166 1.66699 -32.499 11s-15 19.666 -17 30.999s1.66699 23 11 35l102 120c6 6 13.167 10.333 21.5 13s17.166 2.33398 26.499 -0.999023z" />
    <glyph glyph-name="N" unicode="N" horiz-adv-x="757" 
d="M626 696c15.333 0 27.167 -3.99707 35.5 -11.9971s12.5 -18 12.5 -30v-600c0 -12 -2.66699 -21.5 -8 -28.5s-12.666 -13.5 -21.999 -19.5c-19.333 -6.66699 -35.333 -0.666992 -48 18l-162 192c-9.33301 -3.33301 -18.666 -6.16602 -27.999 -8.49902s-20 -3.5 -32 -3.5
c-21.333 0 -41 3.83301 -59 11.5s-33.833 18 -47.5 31s-24.334 28.333 -32.001 46s-11.5 36.167 -11.5 55.5c0 12 1.5 23.667 4.5 35s7.5 21.666 13.5 30.999l-78 102v-468c0 -12 -4.16699 -23 -12.5 -33s-20.166 -15 -35.499 -15c-12 0 -22 5 -30 15s-12 21 -12 33v600
c0 12 2.66699 21.167 8 27.5s12.666 11.166 21.999 14.499s18.166 3.66602 26.499 0.999023s15.5 -7 21.5 -13l150 -198c24 12 48 18 72 18c19.333 0 37.833 -3.83301 55.5 -11.5s33 -18.334 46 -32.001s23.333 -29.667 31 -48s11.5 -37.833 11.5 -58.5
c0 -24 -6 -48 -18 -72l84 -96v474c0 12 4 22 12 30s18 12 30 12zM314.001 348.003c0 -15.333 6.16602 -28.166 18.499 -38.499s26.166 -15.5 41.499 -15.5s28.166 5.16699 38.499 15.5s15.5 23.166 15.5 38.499c0 18 -5.16699 32.5 -15.5 43.5s-23.166 16.5 -38.499 16.5
c-9.33301 0 -17.166 -1.5 -23.499 -4.5s-12.5 -7.5 -18.5 -13.5c0 -1.33301 -0.333008 -2.33301 -1 -3c-1.33301 -2 -3 -3 -5 -3c-3.33301 -6 -6.16602 -12 -8.49902 -18s-3.5 -12 -3.5 -18z" />
    <glyph glyph-name="O" unicode="O" horiz-adv-x="781" 
d="M387 499c20.667 0 40.165 -3.83496 58.498 -11.502s34.333 -18.334 48 -32.001s24.334 -29.667 32.001 -48s11.5 -37.833 11.5 -58.5c0 -12 -1.16699 -21.667 -3.5 -29s-5.16602 -15.666 -8.49902 -24.999c-12 -27.333 -30.5 -49.166 -55.5 -65.499
s-52.5 -24.5 -82.5 -24.5c-19.333 0 -37.833 3.83301 -55.5 11.5s-33 18 -46 31s-23.333 28.333 -31 46s-11.5 36.167 -11.5 55.5c0 20.667 3.83301 40.167 11.5 58.5s18 34.333 31 48s28.333 24.334 46 32.001s36.167 11.5 55.5 11.5zM440.998 330.998
c3.33301 6 5.16797 9.66797 5.50098 11.001s0.5 3.66602 0.5 6.99902c0 15.333 -5.5 29.166 -16.5 41.499s-25.5 18.5 -43.5 18.5c-15.333 0 -28.166 -6.16699 -38.499 -18.5s-15.5 -26.166 -15.5 -41.499s5.16699 -28.166 15.5 -38.499s23.166 -15.5 38.499 -15.5
c12 0 23.167 3.66699 33.5 11s17.166 15.666 20.499 24.999zM387 696.999c44.667 0 86.834 -9.16699 126.501 -27.5s74 -43.166 103 -74.499s52 -68.166 69 -110.499s25.5 -87.5 25.5 -135.5s-8.5 -93.167 -25.5 -135.5s-40 -79.166 -69 -110.499
s-63.333 -56.166 -103 -74.499s-81.834 -27.5 -126.501 -27.5c-43.333 0 -84.333 9.16699 -123 27.5s-72.5 43.166 -101.5 74.499s-51.833 68.166 -68.5 110.499s-25 87.5 -25 135.5s8.33301 93.167 25 135.5s39.5 79.166 68.5 110.499s62.833 56.166 101.5 74.499
s79.667 27.5 123 27.5zM387 90.999c32.667 0 63.334 6.66699 92.001 20s53.5 31.666 74.5 54.999s37.5 50.666 49.5 81.999s18 65 18 101s-6 69.667 -18 101s-28.5 58.666 -49.5 81.999s-45.833 41.666 -74.5 54.999s-59.334 20 -92.001 20
c-31.333 0 -60.833 -6.66699 -88.5 -20s-51.834 -31.666 -72.501 -54.999s-37 -50.666 -49 -81.999s-18 -65 -18 -101s6 -69.667 18 -101s28.333 -58.666 49 -81.999s44.834 -41.666 72.501 -54.999s57.167 -20 88.5 -20z" />
    <glyph glyph-name="P" unicode="P" 
d="M389 556c19.333 0 37.8311 -3.83594 55.498 -11.5029s33 -18 46 -31s23.333 -28.333 31 -46s11.5 -36.167 11.5 -55.5c0 -12 -1.16699 -22.667 -3.5 -32s-5.16602 -18.666 -8.49902 -27.999c-12 -27.333 -30.167 -49.166 -54.5 -65.499s-50.166 -24.5 -77.499 -24.5
c-21.333 0 -41 3.83301 -59 11.5s-33.833 18.334 -47.5 32.001s-24.334 29.5 -32.001 47.5s-11.5 37.667 -11.5 59c0 19.333 3.83301 37.833 11.5 55.5s18.334 33 32.001 46s29.5 23.333 47.5 31s37.667 11.5 59 11.5zM442.998 411.997
c0 15.333 -5.16797 28.166 -15.501 38.499s-23.166 15.5 -38.499 15.5s-29.166 -5.16699 -41.499 -15.5s-18.5 -23.166 -18.5 -38.499c0 -18 6.16699 -32.5 18.5 -43.5s26.166 -16.5 41.499 -16.5c12 0 22.5 4 31.5 12s16.5 18 22.5 30v18zM604.997 657.997
c36 -21.333 64 -51.167 84 -89.5s30 -84.5 30 -138.5c0 -12 -5 -22 -15 -30s-21 -12 -33 -12s-22 4 -30 12s-12 18 -12 30c0 37.333 -5.33301 67.833 -16 91.5s-26 42 -46 55s-44 21.833 -72 26.5s-59.333 7 -94 7h-234v-564c0 -12 -4 -22 -12 -30s-18 -12 -30 -12
s-23 4 -33 12s-15 18 -15 30v612c0 12 5 22 15 30s21 12 33 12h276c33.333 0 67.333 -2.5 102 -7.5s68.667 -16.5 102 -34.5z" />
    <glyph glyph-name="Q" unicode="Q" 
d="M389 697c44.667 0 86.834 -9.16699 126.501 -27.5s74 -43.166 103 -74.499s52 -68.166 69 -110.499s25.5 -87.5 25.5 -135.5s-8.5 -93.167 -25.5 -135.5s-40 -79.166 -69 -110.499s-63.333 -56.166 -103 -74.499s-81.834 -27.5 -126.501 -27.5
c-43.333 0 -84.666 9.16699 -123.999 27.5s-73.833 43.166 -103.5 74.499s-53.167 68.166 -70.5 110.499s-26 87.5 -26 135.5s8.66699 93.167 26 135.5s40.833 79.166 70.5 110.499s64.167 56.166 103.5 74.499s80.666 27.5 123.999 27.5zM569 187
c18 21.333 31.498 46.1631 40.498 74.4961s13.5 57.5 13.5 87.5c0 36 -6 69.667 -18 101s-28.5 58.666 -49.5 81.999s-45.833 41.666 -74.5 54.999s-59.334 20 -92.001 20c-31.333 0 -61.166 -6.66699 -89.499 -20s-53.166 -31.666 -74.499 -54.999
s-38.333 -50.666 -51 -81.999s-19 -65 -19 -101s6.33301 -69.667 19 -101s29.667 -58.666 51 -81.999s46.166 -41.666 74.499 -54.999s58.166 -20 89.499 -20c21.333 0 41.833 3 61.5 9s37.167 15 52.5 27l-66 84c-6 -3.33301 -13.167 -5.16602 -21.5 -5.49902
s-17.166 -0.5 -26.499 -0.5c-19.333 0 -37.833 3.83301 -55.5 11.5s-33 18 -46 31s-23.333 28.333 -31 46s-11.5 36.167 -11.5 55.5c0 20.667 3.83301 40.167 11.5 58.5s18 34.333 31 48s28.333 24.334 46 32.001s36.167 11.5 55.5 11.5
c20.667 0 40.167 -3.83301 58.5 -11.5s34.333 -18.334 48 -32.001s24.334 -29.667 32.001 -48s11.5 -37.833 11.5 -58.5c0 -12 -1.16699 -21.667 -3.5 -29s-5.16602 -15.666 -8.49902 -24.999c-3.33301 -6 -6.33301 -11 -9 -15s-5.66699 -9 -9 -15zM388.998 294.997
c12 0 23.1689 3.66797 33.502 11.001s17.166 15.666 20.499 24.999c3.33301 6 5.16602 9.66699 5.49902 11s0.5 3.66602 0.5 6.99902c0 15.333 -5.5 29.166 -16.5 41.499s-25.5 18.5 -43.5 18.5c-15.333 0 -28.166 -6.16699 -38.499 -18.5s-15.5 -26.166 -15.5 -41.499
s5.16699 -28.166 15.5 -38.499s23.166 -15.5 38.499 -15.5z" />
    <glyph glyph-name="R" unicode="R" horiz-adv-x="821" 
d="M627 426c0 37.333 -5.16797 67.832 -15.501 91.499s-25.166 42 -44.499 55s-43.166 21.833 -71.499 26.5s-60.5 7 -96.5 7h-228v-558c0 -12 -4.16699 -22 -12.5 -30s-20.166 -12 -35.499 -12c-12 0 -22 4 -30 12s-12 18 -12 30v606c0 12 4 22 12 30s18 12 30 12h276
c33.333 0 68.166 -2.5 104.499 -7.5s69.5 -16.5 99.5 -34.5c39.333 -21.333 68.166 -51.166 86.499 -89.499s27.5 -84.5 27.5 -138.5c0 -12 -4 -22 -12 -30s-18 -12 -30 -12s-23 4 -33 12s-15 18 -15 30zM740.999 77.999c9.33301 -9.33301 13.666 -20.1709 12.999 -32.5039
s-7 -21.5 -19 -27.5c-9.33301 -9.33301 -19.333 -14 -30 -14s-20.667 4.66699 -30 14l-246 270c-6 -3.33301 -12 -5.16602 -18 -5.49902s-12 -0.5 -18 -0.5c-21.333 0 -41 3.83301 -59 11.5s-33.833 18.334 -47.5 32.001s-24.334 29.5 -32.001 47.5s-11.5 37.667 -11.5 59
c0 19.333 3.83301 37.833 11.5 55.5s18.334 33 32.001 46s29.5 23.333 47.5 31s37.667 11.5 59 11.5c19.333 0 37.833 -3.83301 55.5 -11.5s33 -18 46 -31s23.333 -28.333 31 -46s11.5 -36.167 11.5 -55.5c0 -12 -1.16699 -22.667 -3.5 -32
s-5.16602 -18.666 -8.49902 -27.999c-3.33301 -3.33301 -6.33301 -7.66602 -9 -12.999s-5.66699 -11 -9 -17zM440.999 413.994c3.33301 3.33301 5.16602 6.33301 5.49902 9s0.5 5.66699 0.5 9c0 15.333 -5.16699 28.166 -15.5 38.499s-23.166 15.5 -38.499 15.5
c-18 0 -32.5 -5.16699 -43.5 -15.5s-16.5 -23.166 -16.5 -38.499c0 -18 5.5 -32.5 16.5 -43.5s25.5 -16.5 43.5 -16.5c9.33301 0 18.833 4 28.5 12s16.167 18 19.5 30z" />
    <glyph glyph-name="S" unicode="S" horiz-adv-x="761" 
d="M235 347c0 20.667 3.83105 40.1689 11.498 58.502s18 34.333 31 48s28.333 24.334 46 32.001s36.167 11.5 55.5 11.5c20.667 0 40.167 -3.83301 58.5 -11.5s34.333 -18.334 48 -32.001s24.334 -29.667 32.001 -48s11.5 -37.833 11.5 -58.5
c0 -19.333 -3.83301 -37.833 -11.5 -55.5s-18.334 -33 -32.001 -46s-29.667 -23.333 -48 -31s-37.833 -11.5 -58.5 -11.5c-27.333 0 -53.166 8.16699 -77.499 24.5s-42.5 38.166 -54.5 65.499c-3.33301 9.33301 -6.16602 17.666 -8.49902 24.999s-3.5 17 -3.5 29z
M438.998 347.002c0 18 -6.16797 32.5 -18.501 43.5s-26.166 16.5 -41.499 16.5s-28.166 -5.5 -38.499 -16.5s-15.5 -25.5 -15.5 -43.5v-18c6 -9.33301 13.5 -17.666 22.5 -24.999s19.5 -11 31.5 -11c15.333 0 29.166 5.16699 41.499 15.5s18.5 23.166 18.5 38.499z
M258.997 491.002c-9.33301 -9.33301 -20.3311 -13.999 -32.998 -13.999s-23.667 4.66699 -33 14l-114 126c-6 6 -10.333 13.167 -13 21.5s-2.33398 17.166 0.999023 26.499c6 6 12.167 11.5 18.5 16.5s14.166 7.5 23.499 7.5h516c12 0 22 -4 30 -12s12 -18 12 -30
s-4 -23 -12 -33s-18 -15 -30 -15h-408l42 -48c9.33301 -9.33301 14 -19.333 14 -30s-4.66699 -20.667 -14 -30zM672.999 77.0029c6 -6 10 -13.1689 12 -21.502s0 -17.166 -6 -26.499c-3.33301 -9.33301 -7.83301 -16.666 -13.5 -21.999s-13.167 -8 -22.5 -8h-516
c-12 0 -22 5 -30 15s-12 21 -12 33s4 22 12 30s18 12 30 12h408l-54 60c-9.33301 9.33301 -13 20.333 -11 33s7.66699 23.667 17 33s19.333 13 30 11s20.667 -7.66699 30 -17z" />
    <glyph glyph-name="T" unicode="T" horiz-adv-x="769" 
d="M385 566c19.333 0 37.8311 -3.83398 55.498 -11.501s33 -18 46 -31s23.333 -28.333 31 -46s11.5 -36.167 11.5 -55.5c0 -12 -1.16699 -22.5 -3.5 -31.5s-5.16602 -16.5 -8.49902 -22.5c-9.33301 -21.333 -21.333 -39.166 -36 -53.499s-32.667 -24.5 -54 -30.5v-240
c0 -12 -4 -22 -12 -30s-18 -12 -30 -12s-23 4 -33 12s-15 18 -15 30v240c-30 9.33301 -54.5 26.333 -73.5 51s-28.5 53.667 -28.5 87c0 19.333 3.83301 37.833 11.5 55.5s18.334 33 32.001 46s29.5 23.333 47.5 31s37.667 11.5 59 11.5zM432.998 403.999
c3.33301 6 5.16699 9.66797 5.5 11.001s0.5 3.66602 0.5 6.99902c0 15.333 -5.16699 28.166 -15.5 38.499s-23.166 15.5 -38.499 15.5s-29.166 -5.16699 -41.499 -15.5s-18.5 -23.166 -18.5 -38.499s6.16699 -29.166 18.5 -41.499s26.166 -18.5 41.499 -18.5
c12 0 22.167 4.66699 30.5 14s14.166 18.666 17.499 27.999zM642.999 698c12 0 23 -4 33 -12s15 -18 15 -30s-5 -23 -15 -33s-21 -15 -33 -15h-516c-15.333 0 -27.166 5 -35.499 15s-12.5 21 -12.5 33s4.16699 22 12.5 30s20.166 12 35.499 12h516z" />
    <glyph glyph-name="U" unicode="U" 
d="M395 179c-21.333 0 -41.002 3.83105 -59.002 11.498s-33.833 18 -47.5 31s-24.334 28.333 -32.001 46s-11.5 36.167 -11.5 55.5c0 20.667 3.83301 40.167 11.5 58.5s18.334 34.333 32.001 48s29.5 24.334 47.5 32.001s37.667 11.5 59 11.5
c19.333 0 37.833 -3.83301 55.5 -11.5s33 -18.334 46 -32.001s23.333 -29.667 31 -48s11.5 -37.833 11.5 -58.5c0 -12 -1.16699 -21.667 -3.5 -29s-5.16602 -15.666 -8.49902 -24.999c-12 -27.333 -30.167 -49.166 -54.5 -65.499s-50.166 -24.5 -77.499 -24.5z
M394.998 382.998c-15.333 0 -29.167 -5.5 -41.5 -16.5s-18.5 -25.5 -18.5 -43.5c0 -15.333 6.16699 -28.166 18.5 -38.499s26.166 -15.5 41.499 -15.5c12 0 22.5 3.66699 31.5 11s16.5 15.666 22.5 24.999v18c0 18 -5.16699 32.5 -15.5 43.5s-23.166 16.5 -38.499 16.5z
M664.997 702.998c15.333 0 27.165 -5 35.498 -15s12.5 -21 12.5 -33v-338c0 -43.333 -8.33301 -84.333 -25 -123s-39.5 -72.5 -68.5 -101.5s-62.833 -51.833 -101.5 -68.5s-79.667 -25 -123 -25s-84.333 8.33301 -123 25s-72.5 39.5 -101.5 68.5s-51.833 62.833 -68.5 101.5
s-25 79.667 -25 123v338c0 12 4 23 12 33s18 15 30 15s23 -5 33 -15s15 -21 15 -33v-338c0 -31.333 6 -60.833 18 -88.5s28.333 -51.834 49 -72.501s44.834 -37 72.501 -49s57.167 -18 88.5 -18s60.833 6 88.5 18s51.834 28.333 72.501 49s37 44.834 49 72.501
s18 57.167 18 88.5v338c0 12 4 23 12 33s18 15 30 15z" />
    <glyph glyph-name="V" unicode="V" horiz-adv-x="833" 
d="M419 393c-19.333 0 -37.833 3.83301 -55.5 11.5s-33 18 -46 31s-23.333 28.333 -31 46s-11.5 36.167 -11.5 55.5c0 20.667 3.83301 40.167 11.5 58.5s18 34.333 31 48s28.333 24.334 46 32.001s36.167 11.5 55.5 11.5c20.667 0 40.167 -3.83301 58.5 -11.5
s34.333 -18.334 48 -32.001s24.334 -29.667 32.001 -48s11.5 -37.833 11.5 -58.5c0 -19.333 -3.83301 -37.833 -11.5 -55.5s-18.334 -33 -32.001 -46s-29.667 -23.333 -48 -31s-37.833 -11.5 -58.5 -11.5zM419 597c-15.333 0 -28.166 -5.5 -38.499 -16.5
s-15.5 -25.5 -15.5 -43.5c0 -15.333 5.16699 -28.166 15.5 -38.499s23.166 -15.5 38.499 -15.5s29.166 5.16699 41.499 15.5s18.5 23.166 18.5 38.499c0 18 -6.16699 32.5 -18.5 43.5s-26.166 16.5 -41.499 16.5zM755 639l-293.999 -618
c-3.33301 -9.33301 -8.83301 -15.666 -16.5 -18.999s-16.167 -5 -25.5 -5s-17.166 1.66699 -23.499 5s-12.5 9.66602 -18.5 18.999l-294 618c-6 9.33301 -6.5 20.166 -1.5 32.499s13.5 21.5 25.5 27.5c9.33301 3.33301 20.166 3.16602 32.499 -0.500977
s21.5 -11.5 27.5 -23.5l252 -528l252 528c6 12 15.167 19.833 27.5 23.5s23.166 3.83398 32.499 0.500977c12 -6 20.5 -15.167 25.5 -27.5s4.5 -23.166 -1.5 -32.499z" />
    <glyph glyph-name="W" unicode="W" horiz-adv-x="939" 
d="M845 683c12 -3.33301 21.8301 -10.1689 29.4971 -20.502s9.83398 -21.5 6.50098 -33.5l-144 -588c0 -9.33301 -3.66699 -16.833 -11 -22.5s-15.666 -10.167 -24.999 -13.5c-9.33301 0 -17.833 1.66699 -25.5 5s-13.167 9.66602 -16.5 18.999l-144 258
c-9.33301 -3.33301 -17.333 -5.16602 -24 -5.49902s-14.667 -0.5 -24 -0.5c-19.333 0 -37.833 3.83301 -55.5 11.5s-33 18 -46 31s-23.333 28.333 -31 46s-11.5 36.167 -11.5 55.5c0 20.667 3.83301 40.167 11.5 58.5s18 34.333 31 48s28.333 24.334 46 32.001
s36.167 11.5 55.5 11.5c20.667 0 40.167 -3.83301 58.5 -11.5s34.333 -18.334 48 -32.001s24.334 -29.667 32.001 -48s11.5 -37.833 11.5 -58.5c0 -12 -1.16699 -21.667 -3.5 -29s-5.16602 -15.666 -8.49902 -24.999c-3.33301 -6 -6.33301 -11 -9 -15s-5.66699 -9 -9 -15
l90 -168l114 474c3.33301 12 10.166 21.833 20.499 29.5s21.5 9.83398 33.5 6.50098zM520.997 406.997c3.33301 6 5.16797 9.66797 5.50098 11.001s0.5 3.66602 0.5 6.99902c0 18 -5.5 32.5 -16.5 43.5s-25.5 16.5 -43.5 16.5c-15.333 0 -28.166 -5.5 -38.499 -16.5
s-15.5 -25.5 -15.5 -43.5c0 -15.333 5.16699 -28.166 15.5 -38.499s23.166 -15.5 38.499 -15.5c12 0 23.167 3.66699 33.5 11s17.166 15.666 20.499 24.999zM346.999 250.998c12 -6 19.499 -15.166 22.499 -27.499s1.5 -23.166 -4.5 -32.499l-78 -162
c-6 -9.33301 -13.167 -15.666 -21.5 -18.999s-17.166 -5 -26.499 -5c-9.33301 3.33301 -17.666 7.83301 -24.999 13.5s-11 13.167 -11 22.5l-144 588c-3.33301 12 -2 23.167 4 33.5s16.667 17.166 32 20.499c12 3.33301 23.167 1.16602 33.5 -6.50098
s17.166 -17.5 20.499 -29.5l108 -468l30 54c6 9.33301 14.5 16.166 25.5 20.499s22.5 3.5 34.5 -2.5z" />
    <glyph glyph-name="X" unicode="X" horiz-adv-x="821" 
d="M730 80c6 -9.33301 8.83301 -20.332 8.5 -32.999s-5.16602 -23.667 -14.499 -33s-20.333 -13.666 -33 -12.999s-23.667 7 -33 19l-192 210c-9.33301 -6 -19.333 -10.5 -30 -13.5s-20.667 -4.5 -30 -4.5c-21.333 0 -41 3.83301 -59 11.5s-33.833 18 -47.5 31
s-24.334 28.333 -32.001 46s-11.5 36.167 -11.5 55.5c0 15.333 2.5 30.166 7.5 44.499s10.5 27.5 16.5 39.5l-174 192c-9.33301 9.33301 -13 20.166 -11 32.499s7.66699 21.5 17 27.5c9.33301 9.33301 20.166 14 32.499 14s21.5 -4.66699 27.5 -14l180 -198
c6 3.33301 13.5 6.16602 22.5 8.49902s19.5 3.5 31.5 3.5c19.333 0 37.833 -3.83301 55.5 -11.5s33 -18.334 46 -32.001s23.333 -29.667 31 -48s11.5 -37.833 11.5 -58.5c0 -12 -1.16699 -21.667 -3.5 -29s-5.16602 -15.666 -8.49902 -24.999
c-1.33301 -1.33301 -2.33301 -2.66602 -3 -3.99902c-2 -2 -3 -4.66699 -3 -8zM454 344.001c3.33301 3.33301 5.16602 5.33203 5.49902 5.99902s0.5 2.66699 0.5 6c0 18 -5.16699 32.5 -15.5 43.5s-23.166 16.5 -38.499 16.5c-18 0 -32.5 -5.5 -43.5 -16.5
s-16.5 -25.5 -16.5 -43.5c0 -15.333 5.5 -28.166 16.5 -38.499s25.5 -15.5 43.5 -15.5c9.33301 0 18.833 4 28.5 12s16.167 18 19.5 30zM225 217c9.33301 9.33301 20.332 14 32.999 14s23.667 -4.66699 33 -14c9.33301 -6 14 -15.167 14 -27.5s-4.66699 -23.166 -14 -32.499
l-119 -131c-6 -12 -15.167 -18.333 -27.5 -19s-23.166 3.66602 -32.499 12.999s-15 20.333 -17 33s1.66699 23.667 11 33zM529.999 488c-9.33301 9.33301 -14.166 20.332 -14.499 32.999s2.5 23.667 8.5 33l122 138c9.33301 9.33301 20.333 15 33 17s23.667 -1.66699 33 -11
s14.166 -19.666 14.499 -30.999s-2.5 -23 -8.5 -35l-122 -138c-9.33301 -9.33301 -20.333 -15 -33 -17s-23.667 1.66699 -33 11z" />
    <glyph glyph-name="Y" unicode="Y" horiz-adv-x="761" 
d="M375 500c20.667 0 40.166 -3.83496 58.499 -11.502s34.333 -18 48 -31s24.334 -28.333 32.001 -46s11.5 -36.167 11.5 -55.5c0 -12 -1.5 -22.667 -4.5 -32s-7.5 -18.666 -13.5 -27.999c-9.33301 -18 -21.333 -34.167 -36 -48.5s-32.667 -26.166 -54 -35.499v-164
c0 -12 -4 -23 -12 -33s-18 -15 -30 -15s-23 5 -33 15s-15 21 -15 33v164c-13.333 4.66699 -26.166 11.667 -38.499 21s-23.166 20.333 -32.499 33s-16.833 26.667 -22.5 42s-8.5 31.333 -8.5 48c0 9.33301 1.16699 18.333 3.5 27s5.16602 17.667 8.49902 27l-168 216
c-9.33301 12 -13 23.667 -11 35s7.66699 21.666 17 30.999c9.33301 6 20.333 8.83301 33 8.5s23.667 -5.16602 33 -14.499l156 -204c12 6 24.167 10.5 36.5 13.5s26.166 4.5 41.499 4.5zM428.999 337.998c0 3.33301 0.999023 6.33301 2.99902 9s3 5.66699 3 9
c0 15.333 -6.16699 28.166 -18.5 38.499s-26.166 15.5 -41.499 15.5s-29.166 -5.16699 -41.499 -15.5s-18.5 -23.166 -18.5 -38.499c0 -18 6.16699 -32.5 18.5 -43.5s26.166 -16.5 41.499 -16.5c12 0 22.5 4 31.5 12s16.5 18 22.5 30zM680.998 691.998
c9.33301 -9.33301 15 -19.666 17 -30.999s-1.66699 -23 -11 -35l-111 -143c-9.33301 -9.33301 -19.666 -15 -30.999 -17s-23 1.66699 -35 11c-9.33301 9.33301 -15 19.333 -17 30s1.66699 20.667 11 30l117 149c6 9.33301 15.167 14.166 27.5 14.499
s23.166 -2.5 32.499 -8.5z" />
    <glyph glyph-name="Z" unicode="Z" horiz-adv-x="761" 
d="M517 347c0 -12 -1.16895 -21.6689 -3.50195 -29.002s-5.16602 -15.666 -8.49902 -24.999c-12 -27.333 -30.167 -49.166 -54.5 -65.499s-50.166 -24.5 -77.499 -24.5c-21.333 0 -41 3.83301 -59 11.5s-33.833 18 -47.5 31s-24.334 28.333 -32.001 46
s-11.5 36.167 -11.5 55.5c0 20.667 3.83301 40.167 11.5 58.5s18.334 34.333 32.001 48s29.5 24.334 47.5 32.001s37.667 11.5 59 11.5c19.333 0 37.833 -3.83301 55.5 -11.5s33 -18.334 46 -32.001s23.333 -29.667 31 -48s11.5 -37.833 11.5 -58.5zM312.998 346.998
c0 -15.333 6.16602 -28.166 18.499 -38.499s26.166 -15.5 41.499 -15.5c12 0 22.5 3.66699 31.5 11s16.5 15.666 22.5 24.999v18c0 18 -5.16699 32.5 -15.5 43.5s-23.166 16.5 -38.499 16.5s-29.166 -5.5 -41.499 -16.5s-18.5 -25.5 -18.5 -43.5zM492.997 490.998
c-9.33301 9.33301 -13.998 19.332 -13.998 29.999s4.66699 20.667 14 30l42 48h-408c-12 0 -22 5 -30 15s-12 21 -12 33s4 22 12 30s18 12 30 12h516c9.33301 0 17.166 -2.5 23.499 -7.5s12.5 -10.5 18.5 -16.5c3.33301 -9.33301 3.66602 -18.166 0.999023 -26.499
s-7 -15.5 -13 -21.5l-114 -126c-9.33301 -9.33301 -20.333 -14 -33 -14s-23.667 4.66699 -33 14zM78.999 76.9971l126 132.002c9.33301 9.33301 19.333 15 30 17s20.667 -1.66699 30 -11s15 -20.333 17 -33s-1.66699 -23.667 -11 -33l-54 -60h408c12 0 22 -4 30 -12
s12 -18 12 -30s-4 -23 -12 -33s-18 -15 -30 -15h-516c-9.33301 0 -16.833 2.66699 -22.5 8s-10.167 12.666 -13.5 21.999c-6 9.33301 -8 18.166 -6 26.499s6 15.5 12 21.5z" />
    <glyph glyph-name="bracketleft" unicode="[" horiz-adv-x="486" 
d="M378 82c12 0 22 -4 30 -12s12 -18 12 -30s-4 -22 -12 -30s-18 -12 -30 -12h-258c-12 0 -22 4 -30 12s-12 18 -12 30v546c0 12 4 22 12 30s18 12 30 12h258c12 0 22 -4 30 -12s12 -18 12 -30s-4 -22 -12 -30s-18 -12 -30 -12h-216v-462h216v0z" />
    <glyph glyph-name="backslash" unicode="\" horiz-adv-x="651" 
d="M535 16l-468 509.998c-6 9.33301 -8.83301 19.333 -8.5 30s5.16602 20.667 14.499 30c9.33301 6 19.333 8.83301 30 8.5s20.667 -5.16602 30 -14.499l462 -504c9.33301 -9.33301 14 -19.333 14 -30s-4.66699 -20.667 -14 -30s-20.166 -13.166 -32.499 -11.499
s-21.5 5.5 -27.5 11.5z" />
    <glyph glyph-name="bracketright" unicode="]" horiz-adv-x="486" 
d="M120 82h216v462h-216c-12 0 -22 4 -30 12s-12 18 -12 30s4 22 12 30s18 12 30 12h258c12 0 22 -4 30 -12s12 -18 12 -30v-546c0 -12 -4 -22 -12 -30s-18 -12 -30 -12h-258c-12 0 -22 4 -30 12s-12 18 -12 30s4 22 12 30s18 12 30 12z" />
    <glyph glyph-name="underscore" unicode="_" horiz-adv-x="639" 
d="M116 0c-12 0 -22 4 -30 12s-12 18 -12 30s4 22 12 30s18 12 30 12h418c12 0 22 -4 30 -12s12 -18 12 -30s-4 -22 -12 -30s-18 -12 -30 -12h-418v0z" />
    <glyph glyph-name="a" unicode="a" horiz-adv-x="833" 
d="M420 311c20.667 0 40.167 -3.83301 58.5 -11.5s34.333 -18 48 -31s24.334 -28.333 32.001 -46s11.5 -36.167 11.5 -55.5c0 -21.333 -3.83301 -41 -11.5 -59s-18.334 -33.833 -32.001 -47.5s-29.667 -24.334 -48 -32.001s-37.833 -11.5 -58.5 -11.5
c-19.333 0 -37.833 3.83301 -55.5 11.5s-33 18.334 -46 32.001s-23.333 29.5 -31 47.5s-11.5 37.667 -11.5 59c0 19.333 3.83301 37.833 11.5 55.5s18 33 31 46s28.333 23.333 46 31s36.167 11.5 55.5 11.5zM420 107c15.333 0 29.166 5.5 41.499 16.5s18.5 25.5 18.5 43.5
c0 15.333 -6.16699 28.166 -18.5 38.499s-26.166 15.5 -41.499 15.5s-28.166 -5.16699 -38.499 -15.5s-15.5 -23.166 -15.5 -38.499c0 -18 5.16699 -32.5 15.5 -43.5s23.166 -16.5 38.499 -16.5zM756 65c6 -9.33301 6.49902 -20.166 1.49902 -32.499
s-13.5 -21.5 -25.5 -27.5c-9.33301 -3.33301 -20.166 -3.16602 -32.499 0.500977s-21.5 11.5 -27.5 23.5l-252 528l-252 -528c-6 -12 -15.167 -19.833 -27.5 -23.5s-23.166 -3.83398 -32.499 -0.500977c-12 6 -20.5 15.167 -25.5 27.5s-4.5 23.166 1.5 32.499l294 618
c6 9.33301 12.167 15.666 18.5 18.999s14.166 5 23.499 5s17.833 -1.66699 25.5 -5s13.167 -9.66602 16.5 -18.999z" />
    <glyph glyph-name="b" unicode="b" horiz-adv-x="623" 
d="M380 380c-21.333 0 -41 3.83301 -59 11.5s-33.833 18.334 -47.5 32.001s-24.334 29.5 -32.001 47.5s-11.5 37.667 -11.5 59c0 19.333 3.83301 37.833 11.5 55.5s18.334 33 32.001 46s29.5 23.333 47.5 31s37.667 11.5 59 11.5c19.333 0 37.833 -3.83301 55.5 -11.5
s33 -18 46 -31s23.333 -28.333 31 -46s11.5 -36.167 11.5 -55.5c0 -21.333 -3.83301 -41 -11.5 -59s-18 -33.833 -31 -47.5s-28.333 -24.334 -46 -32.001s-36.167 -11.5 -55.5 -11.5zM380 584c-18 0 -32.5 -5.16699 -43.5 -15.5s-16.5 -23.166 -16.5 -38.499
s5.5 -29.166 16.5 -41.499s25.5 -18.5 43.5 -18.5c15.333 0 28.166 6.16699 38.499 18.5s15.5 26.166 15.5 41.499s-5.16699 28.166 -15.5 38.499s-23.166 15.5 -38.499 15.5zM380 362c19.333 0 37.833 -3.83301 55.5 -11.5s33 -18.334 46 -32.001s23.333 -29.667 31 -48
s11.5 -37.833 11.5 -58.5c0 -21.333 -3.83301 -41 -11.5 -59s-18 -33.833 -31 -47.5s-28.333 -24.334 -46 -32.001s-36.167 -11.5 -55.5 -11.5c-21.333 0 -41 3.83301 -59 11.5s-33.833 18.334 -47.5 32.001s-24.334 29.5 -32.001 47.5s-11.5 37.667 -11.5 59
c0 20.667 3.83301 40.167 11.5 58.5s18.334 34.333 32.001 48s29.5 24.334 47.5 32.001s37.667 11.5 59 11.5zM380 152c15.333 0 28.166 6.16699 38.499 18.5s15.5 26.166 15.5 41.499s-5.16699 29.166 -15.5 41.499s-23.166 18.5 -38.499 18.5
c-18 0 -32.5 -6.16699 -43.5 -18.5s-16.5 -26.166 -16.5 -41.499s5.5 -29.166 16.5 -41.499s25.5 -18.5 43.5 -18.5zM104 722c12 0 22 -4 30 -12s12 -18 12 -30v-612c0 -12 -4 -23 -12 -33s-18 -15 -30 -15s-23 5 -33 15s-15 21 -15 33v612c0 12 5 22 15 30s21 12 33 12z
" />
    <glyph glyph-name="c" unicode="c" horiz-adv-x="716" 
d="M278 341c0 20.667 3.83301 40.167 11.5 58.5s18 34.333 31 48s28.333 24.334 46 32.001s36.167 11.5 55.5 11.5c20.667 0 40.167 -3.83301 58.5 -11.5s34.333 -18.334 48 -32.001s24.334 -29.667 32.001 -48s11.5 -37.833 11.5 -58.5
c0 -19.333 -3.83301 -37.833 -11.5 -55.5s-18.334 -33 -32.001 -46s-29.667 -23.333 -48 -31s-37.833 -11.5 -58.5 -11.5c-19.333 0 -37.833 3.83301 -55.5 11.5s-33 18 -46 31s-23.333 28.333 -31 46s-11.5 36.167 -11.5 55.5zM482 341c0 18 -5.5 32.5 -16.5 43.5
s-25.5 16.5 -43.5 16.5c-15.333 0 -28.166 -5.5 -38.499 -16.5s-15.5 -25.5 -15.5 -43.5c0 -15.333 5.16699 -28.166 15.5 -38.499s23.166 -15.5 38.499 -15.5c18 0 32.5 5.16699 43.5 15.5s16.5 23.166 16.5 38.499zM638 569
c-9.33301 -9.33301 -20.3311 -15.0029 -32.998 -17.0029s-23.667 1.66699 -33 11c-24 18 -49.5 32.5 -76.5 43.5s-55.5 16.5 -85.5 16.5c-36 0 -69.667 -7 -101 -21s-58.666 -33 -81.999 -57s-41.666 -52 -54.999 -84s-20 -66 -20 -102s6.66699 -70 20 -102
s31.666 -60 54.999 -84s50.666 -43 81.999 -57s65 -21 101 -21c27.333 0 53.833 4.16699 79.5 12.5s49.167 20.166 70.5 35.499c12 9.33301 23.667 13 35 11s21.666 -7.66699 30.999 -17c6 -12 8.5 -23.667 7.5 -35s-7.5 -21.666 -19.5 -30.999
c-30 -21.333 -62.5 -37.666 -97.5 -48.999s-70.5 -17 -106.5 -17c-48 0 -93.167 9.16699 -135.5 27.5s-79.166 43.5 -110.499 75.5s-56.166 69.5 -74.499 112.5s-27.5 89.167 -27.5 138.5c0 48 9.16699 93.5 27.5 136.5s43.166 80.5 74.499 112.5s68.166 57.5 110.499 76.5
s87.5 28.5 135.5 28.5c39.333 0 77.833 -7.16699 115.5 -21.5s73.167 -35.166 106.5 -62.499c9.33301 -6 14.166 -15.167 14.499 -27.5s-2.5 -23.166 -8.5 -32.499z" />
    <glyph glyph-name="d" unicode="d" horiz-adv-x="704" 
d="M274 193c-19.333 0 -37.833 3.83301 -55.5 11.5s-33 18.334 -46 32.001s-23.333 29.5 -31 47.5s-11.5 37.667 -11.5 59c0 19.333 3.83301 37.833 11.5 55.5s18 33 31 46s28.333 23.333 46 31s36.167 11.5 55.5 11.5c20.667 0 40.167 -3.83301 58.5 -11.5
s34.333 -18 48 -31s24.334 -28.333 32.001 -46s11.5 -36.167 11.5 -55.5c0 -21.333 -3.83301 -41 -11.5 -59s-18.334 -33.833 -32.001 -47.5s-29.667 -24.334 -48 -32.001s-37.833 -11.5 -58.5 -11.5zM274 397c-15.333 0 -28.166 -5.16699 -38.499 -15.5
s-15.5 -23.166 -15.5 -38.499c0 -18 5.16699 -32.5 15.5 -43.5s23.166 -16.5 38.499 -16.5s29.166 5.5 41.499 16.5s18.5 25.5 18.5 43.5c0 15.333 -6.16699 28.166 -18.5 38.499s-26.166 15.5 -41.499 15.5zM286 709c49.333 0 95.502 -9.49707 138.502 -28.4971
s80.5 -44.5 112.5 -76.5s57.167 -69.5 75.5 -112.5s27.5 -88.5 27.5 -136.5c0 -49.333 -9.16699 -95.5 -27.5 -138.5s-43.5 -80.5 -75.5 -112.5s-69.5 -57.167 -112.5 -75.5s-89.167 -27.5 -138.5 -27.5c-36 0 -71.5 5.66699 -106.5 17s-67.5 27.666 -97.5 48.999
c-9.33301 9.33301 -15 19.666 -17 30.999s1.66699 23 11 35c6 9.33301 15.167 15 27.5 17s23.166 -1.66699 32.499 -11c24 -15.333 48.167 -27.166 72.5 -35.499s50.166 -12.5 77.499 -12.5c36 0 70 7 102 21s60 33 84 57s43 52 57 84s21 66 21 102s-7 70 -21 102
s-33 60 -57 84s-52 43 -84 57s-66 21 -102 21c-30 0 -58.5 -5.5 -85.5 -16.5s-52.5 -25.5 -76.5 -43.5c-9.33301 -9.33301 -20.166 -13 -32.499 -11s-21.5 7.66699 -27.5 17c-9.33301 9.33301 -13 20.166 -11 32.499s7.66699 21.5 17 27.5
c30 27.333 63.667 48.166 101 62.499s75.666 21.5 114.999 21.5z" />
    <glyph glyph-name="e" unicode="e" horiz-adv-x="660" 
d="M183 344c0 19.333 3.83301 37.833 11.5 55.5s18 33 31 46s28.333 23.333 46 31s36.167 11.5 55.5 11.5c20.667 0 40.167 -3.83301 58.5 -11.5s34.333 -18 48 -31s24.334 -28.333 32.001 -46s11.5 -36.167 11.5 -55.5c0 -21.333 -3.83301 -41 -11.5 -59
s-18.334 -33.833 -32.001 -47.5s-29.667 -24.334 -48 -32.001s-37.833 -11.5 -58.5 -11.5c-19.333 0 -37.833 3.83301 -55.5 11.5s-33 18.334 -46 32.001s-23.333 29.5 -31 47.5s-11.5 37.667 -11.5 59zM387 344c0 15.333 -6.16699 28.166 -18.5 38.499
s-26.166 15.5 -41.499 15.5s-28.166 -5.16699 -38.499 -15.5s-15.5 -23.166 -15.5 -38.499s5.16699 -29.166 15.5 -41.499s23.166 -18.5 38.499 -18.5s29.166 6.16699 41.499 18.5s18.5 26.166 18.5 41.499zM549 92c12 0 23 -5 33 -15s15 -21 15 -33s-5 -22 -15 -30
s-21 -12 -33 -12h-444c-12 0 -23 4 -33 12s-15 18 -15 30v594c0 12 5 22 15 30s21 12 33 12h444c12 0 23 -4 33 -12s15 -18 15 -30s-5 -23 -15 -33s-21 -15 -33 -15h-402v-498h402z" />
    <glyph glyph-name="f" unicode="f" horiz-adv-x="684" 
d="M350 492c20.667 0 40.167 -3.83301 58.5 -11.5s34.333 -18 48 -31s24.334 -28.333 32.001 -46s11.5 -36.167 11.5 -55.5c0 -21.333 -3.83301 -41 -11.5 -59s-18.334 -33.833 -32.001 -47.5s-29.667 -24.334 -48 -32.001s-37.833 -11.5 -58.5 -11.5
c-19.333 0 -37.833 3.83301 -55.5 11.5s-33 18.334 -46 32.001s-23.333 29.5 -31 47.5s-11.5 37.667 -11.5 59c0 19.333 3.83301 37.833 11.5 55.5s18 33 31 46s28.333 23.333 46 31s36.167 11.5 55.5 11.5zM350 288c15.333 0 29.166 6.16699 41.499 18.5
s18.5 26.166 18.5 41.499s-6.16699 28.166 -18.5 38.499s-26.166 15.5 -41.499 15.5s-28.166 -5.16699 -38.499 -15.5s-15.5 -23.166 -15.5 -38.499s5.16699 -29.166 15.5 -41.499s23.166 -18.5 38.499 -18.5zM572 684c12 0 23 -4 33 -12s15 -18 15 -30s-5 -23 -15 -33
s-21 -15 -33 -15h-402v-546c0 -12 -4 -22 -12 -30s-18 -12 -30 -12s-23 4 -33 12s-15 18 -15 30v594c0 12 5 22 15 30s21 12 33 12h444z" />
    <glyph glyph-name="g" unicode="g" horiz-adv-x="781" 
d="M367 339c0 -15.333 6.16699 -28.166 18.5 -38.499s26.166 -15.5 41.499 -15.5s28.166 5.16699 38.499 15.5s15.5 23.166 15.5 38.499c0 18 -5.16699 32.5 -15.5 43.5s-23.166 16.5 -38.499 16.5s-29.166 -5.5 -41.499 -16.5s-18.5 -25.5 -18.5 -43.5zM697 99
c9.33301 -12 13.668 -23.6719 13.001 -35.0049s-7 -21.666 -19 -30.999c-9.33301 -9.33301 -19.333 -13 -30 -11s-20.667 7.66699 -30 17l-24 24c-27.333 -21.333 -57.833 -36.666 -91.5 -45.999s-67.167 -14 -100.5 -14c-49.333 0 -95.5 9.16699 -138.5 27.5
s-80.5 43.5 -112.5 75.5s-57.167 69.5 -75.5 112.5s-27.5 89.167 -27.5 138.5c0 48 9.16699 93.5 27.5 136.5s43.5 80.5 75.5 112.5s69.5 57.5 112.5 76.5s89.167 28.5 138.5 28.5c39.333 0 77.666 -7.16699 114.999 -21.5s71 -35.166 101 -62.499
c9.33301 -6 15 -15.167 17 -27.5s-1.66699 -23.166 -11 -32.499c-6 -9.33301 -15.167 -15 -27.5 -17s-23.166 1.66699 -32.499 11c-24 18 -49.5 32.5 -76.5 43.5s-55.5 16.5 -85.5 16.5c-36 0 -70 -7 -102 -21s-60 -33 -84 -57s-43 -52 -57 -84s-21 -66 -21 -102
s7 -70 21 -102s33 -60 57 -84s52 -43 84 -57s66 -21 102 -21c24 0 47.667 3.16699 71 9.5s45.666 17.166 66.999 32.499l-60 72c-12 -3.33301 -23 -6.16602 -33 -8.49902s-21 -3.5 -33 -3.5c-21.333 0 -41 3.83301 -59 11.5s-33.833 18 -47.5 31s-24.334 28.333 -32.001 46
s-11.5 36.167 -11.5 55.5c0 20.667 3.83301 40.167 11.5 58.5s18.334 34.333 32.001 48s29.5 24.334 47.5 32.001s37.667 11.5 59 11.5c19.333 0 37.833 -3.83301 55.5 -11.5s33 -18.334 46 -32.001s23.333 -29.667 31 -48s11.5 -37.833 11.5 -58.5
c0 -12 -1.5 -23.667 -4.5 -35s-7.5 -21.666 -13.5 -30.999z" />
    <glyph glyph-name="h" unicode="h" horiz-adv-x="716" 
d="M354 497c20.667 0 40.167 -3.83301 58.5 -11.5s34.333 -18 48 -31s24.334 -28.333 32.001 -46s11.5 -36.167 11.5 -55.5c0 -21.333 -3.83301 -41 -11.5 -59s-18.334 -33.833 -32.001 -47.5s-29.667 -24.334 -48 -32.001s-37.833 -11.5 -58.5 -11.5
c-19.333 0 -37.833 3.83301 -55.5 11.5s-33 18.334 -46 32.001s-23.333 29.5 -31 47.5s-11.5 37.667 -11.5 59c0 19.333 3.83301 37.833 11.5 55.5s18 33 31 46s28.333 23.333 46 31s36.167 11.5 55.5 11.5zM354 293c18 0 32.5 6.16699 43.5 18.5s16.5 26.166 16.5 41.499
s-5.5 28.166 -16.5 38.499s-25.5 15.5 -43.5 15.5c-15.333 0 -28.166 -5.16699 -38.499 -15.5s-15.5 -23.166 -15.5 -38.499s5.16699 -29.166 15.5 -41.499s23.166 -18.5 38.499 -18.5zM114 701c12 0 22 -4.16699 30 -12.5s12 -20.166 12 -35.499v-606c0 -12 -4 -22 -12 -30
s-18 -12 -30 -12s-23 4 -33 12s-15 18 -15 30v606c0 15.333 5 27.166 15 35.499s21 12.5 33 12.5zM600 701c12 0 22 -4.16699 30 -12.5s12 -20.166 12 -35.499v-606c0 -12 -4 -22 -12 -30s-18 -12 -30 -12s-23 4 -33 12s-15 18 -15 30v606c0 15.333 5 27.166 15 35.499
s21 12.5 33 12.5z" />
    <glyph glyph-name="i" unicode="i" horiz-adv-x="502" 
d="M249 696c19.333 0 38 -3.83301 56 -11.5s34 -18 48 -31s25.167 -28.333 33.5 -46s12.5 -36.167 12.5 -55.5c0 -21.333 -4.16699 -41 -12.5 -59s-19.5 -33.833 -33.5 -47.5s-30 -24.334 -48 -32.001s-36.667 -11.5 -56 -11.5c-21.333 0 -41 3.83301 -59 11.5
s-33.833 18.334 -47.5 32.001s-24.334 29.5 -32.001 47.5s-11.5 37.667 -11.5 59c0 19.333 3.83301 37.833 11.5 55.5s18.334 33 32.001 46s29.5 23.333 47.5 31s37.667 11.5 59 11.5zM249 492c15.333 0 29.166 6.16699 41.499 18.5s18.5 26.166 18.5 41.499
s-6.16699 28.166 -18.5 38.499s-26.166 15.5 -41.499 15.5s-29.166 -5.16699 -41.499 -15.5s-18.5 -23.166 -18.5 -38.499s6.16699 -29.166 18.5 -41.499s26.166 -18.5 41.499 -18.5zM249 372c12 0 22 -4.16699 30 -12.5s12 -20.166 12 -35.499v-276c0 -12 -4 -22 -12 -30
s-18 -12 -30 -12s-23 4 -33 12s-15 18 -15 30v276c0 15.333 5 27.166 15 35.499s21 12.5 33 12.5z" />
    <glyph glyph-name="j" unicode="j" horiz-adv-x="643" 
d="M415 688c19.333 0 37.833 -3.83301 55.5 -11.5s33 -18 46 -31s23.333 -28.333 31 -46s11.5 -36.167 11.5 -55.5c0 -21.333 -3.83301 -41 -11.5 -59s-18 -33.833 -31 -47.5s-28.333 -24.334 -46 -32.001s-36.167 -11.5 -55.5 -11.5c-21.333 0 -41 3.83301 -59 11.5
s-33.833 18.334 -47.5 32.001s-24.334 29.5 -32.001 47.5s-11.5 37.667 -11.5 59c0 19.333 3.83301 37.833 11.5 55.5s18.334 33 32.001 46s29.5 23.333 47.5 31s37.667 11.5 59 11.5zM415 484c15.333 0 28.166 6.16699 38.499 18.5s15.5 26.166 15.5 41.499
s-5.16699 28.166 -15.5 38.499s-23.166 15.5 -38.499 15.5s-29.166 -5.16699 -41.499 -15.5s-18.5 -23.166 -18.5 -38.499s6.16699 -29.166 18.5 -41.499s26.166 -18.5 41.499 -18.5zM415 364c12 0 22 -4.16602 30 -12.499s12 -20.166 12 -35.499v-276c0 -12 -4 -22 -12 -30
s-18 -12 -30 -12h-294c-12 0 -23 4 -33 12s-15 18 -15 30c0 15.333 5 27.166 15 35.499s21 12.5 33 12.5h246v228c0 15.333 5 27.166 15 35.499s21 12.5 33 12.5z" />
    <glyph glyph-name="k" unicode="k" horiz-adv-x="749" 
d="M115 695c12 0 22 -5 30 -15s12 -21 12 -33v-600c0 -12 -4 -22 -12 -30s-18 -12 -30 -12s-23 4 -33 12s-15 18 -15 30v600c0 12 5 23 15 33s21 15 33 15zM535 473c-9.33301 -6 -19.333 -8.99902 -30 -8.99902s-20.667 3 -30 9c-9.33301 9.33301 -14 20.333 -14 33
s4.66699 23.667 14 33l126 126c9.33301 9.33301 19.333 14.166 30 14.499s20.667 -2.5 30 -8.5c9.33301 -9.33301 14 -20.333 14 -33s-4.66699 -23.667 -14 -33zM661 89.001c9.33301 -9.33301 13.9971 -20.335 13.9971 -33.002s-4.66699 -23.667 -14 -33
s-19.333 -14 -30 -14s-20.667 4.66699 -30 14l-198 198c-12 -6 -24.167 -11.5 -36.5 -16.5s-26.166 -7.5 -41.499 -7.5c-19.333 0 -37.833 3.83301 -55.5 11.5s-33 18.334 -46 32.001s-23.333 29.5 -31 47.5s-11.5 37.667 -11.5 59c0 19.333 3.83301 37.833 11.5 55.5
s18 33 31 46s28.333 23.333 46 31s36.167 11.5 55.5 11.5c20.667 0 40.167 -3.83301 58.5 -11.5s34.333 -18 48 -31s24.334 -28.333 32.001 -46s11.5 -36.167 11.5 -55.5c0 -12 -1.16699 -22.667 -3.5 -32s-5.16602 -18.666 -8.49902 -27.999zM324.997 286.999
c18 0 32.5 6.16699 43.5 18.5s16.5 26.166 16.5 41.499s-5.5 28.166 -16.5 38.499s-25.5 15.5 -43.5 15.5c-15.333 0 -28.166 -5.16699 -38.499 -15.5s-15.5 -23.166 -15.5 -38.499s5.16699 -29.166 15.5 -41.499s23.166 -18.5 38.499 -18.5z" />
    <glyph glyph-name="l" unicode="l" horiz-adv-x="745" 
d="M403 143c-19.333 0 -37.833 3.83301 -55.5 11.5s-33 18 -46 31s-23.333 28.333 -31 46s-11.5 36.167 -11.5 55.5c0 20.667 3.83301 40.167 11.5 58.5s18 34.333 31 48s28.333 24.334 46 32.001s36.167 11.5 55.5 11.5c20.667 0 40.167 -3.83301 58.5 -11.5
s34.333 -18.334 48 -32.001s24.334 -29.667 32.001 -48s11.5 -37.833 11.5 -58.5c0 -19.333 -3.83301 -37.833 -11.5 -55.5s-18.334 -33 -32.001 -46s-29.667 -23.333 -48 -31s-37.833 -11.5 -58.5 -11.5zM403 347c-15.333 0 -28.166 -5.5 -38.499 -16.5
s-15.5 -25.5 -15.5 -43.5c0 -15.333 5.16699 -28.166 15.5 -38.499s23.166 -15.5 38.499 -15.5c18 0 32.5 5.16699 43.5 15.5s16.5 23.166 16.5 38.499c0 18 -5.5 32.5 -16.5 43.5s-25.5 16.5 -43.5 16.5zM607 89c12 0 22 -4.16797 30 -12.501s12 -20.166 12 -35.499
c0 -12 -4 -22 -12 -30s-18 -12 -30 -12h-450c-12 0 -23 4 -33 12s-15 18 -15 30v600c0 15.333 5 27.166 15 35.499s21 12.5 33 12.5s22 -4.16699 30 -12.5s12 -20.166 12 -35.499v-552h408z" />
    <glyph glyph-name="m" unicode="m" horiz-adv-x="777" 
d="M383 484c19.333 0 37.835 -3.83008 55.502 -11.4971s33 -18.334 46 -32.001s23.333 -29.667 31 -48s11.5 -37.833 11.5 -58.5c0 -19.333 -3.83301 -37.833 -11.5 -55.5s-18 -33 -31 -46s-28.333 -23.333 -46 -31s-36.167 -11.5 -55.5 -11.5
c-21.333 0 -41 3.83301 -59 11.5s-33.833 18 -47.5 31s-24.334 28.333 -32.001 46s-11.5 36.167 -11.5 55.5c0 15.333 2.5 29.833 7.5 43.5s10.5 25.167 16.5 34.5l-84 108v-468c0 -15.333 -4.16699 -27.166 -12.5 -35.499s-20.166 -12.5 -35.499 -12.5
c-12 0 -22 4.16699 -30 12.5s-12 20.166 -12 35.499v600c0 9.33301 2.66699 17.833 8 25.5s12.666 13.167 21.999 16.5s18.166 3.66602 26.499 0.999023s15.5 -7 21.5 -13l168 -210c9.33301 3.33301 18.333 6.16602 27 8.49902s17.667 3.5 27 3.5zM383.002 280.003
c15.333 0 28.166 5.16699 38.499 15.5s15.5 23.166 15.5 38.499c0 18 -5.16699 32.5 -15.5 43.5s-23.166 16.5 -38.499 16.5s-29.166 -5.5 -41.499 -16.5s-18.5 -25.5 -18.5 -43.5c0 -15.333 6.16699 -28.166 18.5 -38.499s26.166 -15.5 41.499 -15.5zM653.002 694.003
c9.33301 -3.33301 16.666 -8.83301 21.999 -16.5s8 -16.167 8 -25.5v-600c0 -15.333 -4.16699 -27.166 -12.5 -35.499s-20.166 -12.5 -35.499 -12.5c-12 0 -22 4.16699 -30 12.5s-12 20.166 -12 35.499v474l-24 -24c-6 -9.33301 -15.167 -15 -27.5 -17
s-23.166 1.66699 -32.499 11s-15 19.666 -17 30.999s1.66699 23 11 35l102 120c6 6 13.167 10.333 21.5 13s17.166 2.33398 26.499 -0.999023z" />
    <glyph glyph-name="n" unicode="n" horiz-adv-x="757" 
d="M626 696c15.333 0 27.167 -3.99707 35.5 -11.9971s12.5 -18 12.5 -30v-600c0 -12 -2.66699 -21.5 -8 -28.5s-12.666 -13.5 -21.999 -19.5c-19.333 -6.66699 -35.333 -0.666992 -48 18l-162 192c-9.33301 -3.33301 -18.666 -6.16602 -27.999 -8.49902s-20 -3.5 -32 -3.5
c-21.333 0 -41 3.83301 -59 11.5s-33.833 18 -47.5 31s-24.334 28.333 -32.001 46s-11.5 36.167 -11.5 55.5c0 12 1.5 23.667 4.5 35s7.5 21.666 13.5 30.999l-78 102v-468c0 -12 -4.16699 -23 -12.5 -33s-20.166 -15 -35.499 -15c-12 0 -22 5 -30 15s-12 21 -12 33v600
c0 12 2.66699 21.167 8 27.5s12.666 11.166 21.999 14.499s18.166 3.66602 26.499 0.999023s15.5 -7 21.5 -13l150 -198c24 12 48 18 72 18c19.333 0 37.833 -3.83301 55.5 -11.5s33 -18.334 46 -32.001s23.333 -29.667 31 -48s11.5 -37.833 11.5 -58.5
c0 -24 -6 -48 -18 -72l84 -96v474c0 12 4 22 12 30s18 12 30 12zM314.001 348.003c0 -15.333 6.16602 -28.166 18.499 -38.499s26.166 -15.5 41.499 -15.5s28.166 5.16699 38.499 15.5s15.5 23.166 15.5 38.499c0 18 -5.16699 32.5 -15.5 43.5s-23.166 16.5 -38.499 16.5
c-9.33301 0 -17.166 -1.5 -23.499 -4.5s-12.5 -7.5 -18.5 -13.5c0 -1.33301 -0.333008 -2.33301 -1 -3c-1.33301 -2 -3 -3 -5 -3c-3.33301 -6 -6.16602 -12 -8.49902 -18s-3.5 -12 -3.5 -18z" />
    <glyph glyph-name="o" unicode="o" horiz-adv-x="781" 
d="M387 499c20.667 0 40.165 -3.83496 58.498 -11.502s34.333 -18.334 48 -32.001s24.334 -29.667 32.001 -48s11.5 -37.833 11.5 -58.5c0 -12 -1.16699 -21.667 -3.5 -29s-5.16602 -15.666 -8.49902 -24.999c-12 -27.333 -30.5 -49.166 -55.5 -65.499
s-52.5 -24.5 -82.5 -24.5c-19.333 0 -37.833 3.83301 -55.5 11.5s-33 18 -46 31s-23.333 28.333 -31 46s-11.5 36.167 -11.5 55.5c0 20.667 3.83301 40.167 11.5 58.5s18 34.333 31 48s28.333 24.334 46 32.001s36.167 11.5 55.5 11.5zM440.998 330.998
c3.33301 6 5.16797 9.66797 5.50098 11.001s0.5 3.66602 0.5 6.99902c0 15.333 -5.5 29.166 -16.5 41.499s-25.5 18.5 -43.5 18.5c-15.333 0 -28.166 -6.16699 -38.499 -18.5s-15.5 -26.166 -15.5 -41.499s5.16699 -28.166 15.5 -38.499s23.166 -15.5 38.499 -15.5
c12 0 23.167 3.66699 33.5 11s17.166 15.666 20.499 24.999zM387 696.999c44.667 0 86.834 -9.16699 126.501 -27.5s74 -43.166 103 -74.499s52 -68.166 69 -110.499s25.5 -87.5 25.5 -135.5s-8.5 -93.167 -25.5 -135.5s-40 -79.166 -69 -110.499
s-63.333 -56.166 -103 -74.499s-81.834 -27.5 -126.501 -27.5c-43.333 0 -84.333 9.16699 -123 27.5s-72.5 43.166 -101.5 74.499s-51.833 68.166 -68.5 110.499s-25 87.5 -25 135.5s8.33301 93.167 25 135.5s39.5 79.166 68.5 110.499s62.833 56.166 101.5 74.499
s79.667 27.5 123 27.5zM387 90.999c32.667 0 63.334 6.66699 92.001 20s53.5 31.666 74.5 54.999s37.5 50.666 49.5 81.999s18 65 18 101s-6 69.667 -18 101s-28.5 58.666 -49.5 81.999s-45.833 41.666 -74.5 54.999s-59.334 20 -92.001 20
c-31.333 0 -60.833 -6.66699 -88.5 -20s-51.834 -31.666 -72.501 -54.999s-37 -50.666 -49 -81.999s-18 -65 -18 -101s6 -69.667 18 -101s28.333 -58.666 49 -81.999s44.834 -41.666 72.501 -54.999s57.167 -20 88.5 -20z" />
    <glyph glyph-name="p" unicode="p" 
d="M389 556c19.333 0 37.8311 -3.83594 55.498 -11.5029s33 -18 46 -31s23.333 -28.333 31 -46s11.5 -36.167 11.5 -55.5c0 -12 -1.16699 -22.667 -3.5 -32s-5.16602 -18.666 -8.49902 -27.999c-12 -27.333 -30.167 -49.166 -54.5 -65.499s-50.166 -24.5 -77.499 -24.5
c-21.333 0 -41 3.83301 -59 11.5s-33.833 18.334 -47.5 32.001s-24.334 29.5 -32.001 47.5s-11.5 37.667 -11.5 59c0 19.333 3.83301 37.833 11.5 55.5s18.334 33 32.001 46s29.5 23.333 47.5 31s37.667 11.5 59 11.5zM442.998 411.997
c0 15.333 -5.16797 28.166 -15.501 38.499s-23.166 15.5 -38.499 15.5s-29.166 -5.16699 -41.499 -15.5s-18.5 -23.166 -18.5 -38.499c0 -18 6.16699 -32.5 18.5 -43.5s26.166 -16.5 41.499 -16.5c12 0 22.5 4 31.5 12s16.5 18 22.5 30v18zM604.997 657.997
c36 -21.333 64 -51.167 84 -89.5s30 -84.5 30 -138.5c0 -12 -5 -22 -15 -30s-21 -12 -33 -12s-22 4 -30 12s-12 18 -12 30c0 37.333 -5.33301 67.833 -16 91.5s-26 42 -46 55s-44 21.833 -72 26.5s-59.333 7 -94 7h-234v-564c0 -12 -4 -22 -12 -30s-18 -12 -30 -12
s-23 4 -33 12s-15 18 -15 30v612c0 12 5 22 15 30s21 12 33 12h276c33.333 0 67.333 -2.5 102 -7.5s68.667 -16.5 102 -34.5z" />
    <glyph glyph-name="q" unicode="q" 
d="M389 697c44.667 0 86.834 -9.16699 126.501 -27.5s74 -43.166 103 -74.499s52 -68.166 69 -110.499s25.5 -87.5 25.5 -135.5s-8.5 -93.167 -25.5 -135.5s-40 -79.166 -69 -110.499s-63.333 -56.166 -103 -74.499s-81.834 -27.5 -126.501 -27.5
c-43.333 0 -84.666 9.16699 -123.999 27.5s-73.833 43.166 -103.5 74.499s-53.167 68.166 -70.5 110.499s-26 87.5 -26 135.5s8.66699 93.167 26 135.5s40.833 79.166 70.5 110.499s64.167 56.166 103.5 74.499s80.666 27.5 123.999 27.5zM569 187
c18 21.333 31.498 46.1631 40.498 74.4961s13.5 57.5 13.5 87.5c0 36 -6 69.667 -18 101s-28.5 58.666 -49.5 81.999s-45.833 41.666 -74.5 54.999s-59.334 20 -92.001 20c-31.333 0 -61.166 -6.66699 -89.499 -20s-53.166 -31.666 -74.499 -54.999
s-38.333 -50.666 -51 -81.999s-19 -65 -19 -101s6.33301 -69.667 19 -101s29.667 -58.666 51 -81.999s46.166 -41.666 74.499 -54.999s58.166 -20 89.499 -20c21.333 0 41.833 3 61.5 9s37.167 15 52.5 27l-66 84c-6 -3.33301 -13.167 -5.16602 -21.5 -5.49902
s-17.166 -0.5 -26.499 -0.5c-19.333 0 -37.833 3.83301 -55.5 11.5s-33 18 -46 31s-23.333 28.333 -31 46s-11.5 36.167 -11.5 55.5c0 20.667 3.83301 40.167 11.5 58.5s18 34.333 31 48s28.333 24.334 46 32.001s36.167 11.5 55.5 11.5
c20.667 0 40.167 -3.83301 58.5 -11.5s34.333 -18.334 48 -32.001s24.334 -29.667 32.001 -48s11.5 -37.833 11.5 -58.5c0 -12 -1.16699 -21.667 -3.5 -29s-5.16602 -15.666 -8.49902 -24.999c-3.33301 -6 -6.33301 -11 -9 -15s-5.66699 -9 -9 -15zM388.998 294.997
c12 0 23.1689 3.66797 33.502 11.001s17.166 15.666 20.499 24.999c3.33301 6 5.16602 9.66699 5.49902 11s0.5 3.66602 0.5 6.99902c0 15.333 -5.5 29.166 -16.5 41.499s-25.5 18.5 -43.5 18.5c-15.333 0 -28.166 -6.16699 -38.499 -18.5s-15.5 -26.166 -15.5 -41.499
s5.16699 -28.166 15.5 -38.499s23.166 -15.5 38.499 -15.5z" />
    <glyph glyph-name="r" unicode="r" horiz-adv-x="821" 
d="M627 426c0 37.333 -5.16797 67.832 -15.501 91.499s-25.166 42 -44.499 55s-43.166 21.833 -71.499 26.5s-60.5 7 -96.5 7h-228v-558c0 -12 -4.16699 -22 -12.5 -30s-20.166 -12 -35.499 -12c-12 0 -22 4 -30 12s-12 18 -12 30v606c0 12 4 22 12 30s18 12 30 12h276
c33.333 0 68.166 -2.5 104.499 -7.5s69.5 -16.5 99.5 -34.5c39.333 -21.333 68.166 -51.166 86.499 -89.499s27.5 -84.5 27.5 -138.5c0 -12 -4 -22 -12 -30s-18 -12 -30 -12s-23 4 -33 12s-15 18 -15 30zM740.999 77.999c9.33301 -9.33301 13.666 -20.1709 12.999 -32.5039
s-7 -21.5 -19 -27.5c-9.33301 -9.33301 -19.333 -14 -30 -14s-20.667 4.66699 -30 14l-246 270c-6 -3.33301 -12 -5.16602 -18 -5.49902s-12 -0.5 -18 -0.5c-21.333 0 -41 3.83301 -59 11.5s-33.833 18.334 -47.5 32.001s-24.334 29.5 -32.001 47.5s-11.5 37.667 -11.5 59
c0 19.333 3.83301 37.833 11.5 55.5s18.334 33 32.001 46s29.5 23.333 47.5 31s37.667 11.5 59 11.5c19.333 0 37.833 -3.83301 55.5 -11.5s33 -18 46 -31s23.333 -28.333 31 -46s11.5 -36.167 11.5 -55.5c0 -12 -1.16699 -22.667 -3.5 -32
s-5.16602 -18.666 -8.49902 -27.999c-3.33301 -3.33301 -6.33301 -7.66602 -9 -12.999s-5.66699 -11 -9 -17zM440.999 413.994c3.33301 3.33301 5.16602 6.33301 5.49902 9s0.5 5.66699 0.5 9c0 15.333 -5.16699 28.166 -15.5 38.499s-23.166 15.5 -38.499 15.5
c-18 0 -32.5 -5.16699 -43.5 -15.5s-16.5 -23.166 -16.5 -38.499c0 -18 5.5 -32.5 16.5 -43.5s25.5 -16.5 43.5 -16.5c9.33301 0 18.833 4 28.5 12s16.167 18 19.5 30z" />
    <glyph glyph-name="s" unicode="s" horiz-adv-x="761" 
d="M235 347c0 20.667 3.83105 40.1689 11.498 58.502s18 34.333 31 48s28.333 24.334 46 32.001s36.167 11.5 55.5 11.5c20.667 0 40.167 -3.83301 58.5 -11.5s34.333 -18.334 48 -32.001s24.334 -29.667 32.001 -48s11.5 -37.833 11.5 -58.5
c0 -19.333 -3.83301 -37.833 -11.5 -55.5s-18.334 -33 -32.001 -46s-29.667 -23.333 -48 -31s-37.833 -11.5 -58.5 -11.5c-27.333 0 -53.166 8.16699 -77.499 24.5s-42.5 38.166 -54.5 65.499c-3.33301 9.33301 -6.16602 17.666 -8.49902 24.999s-3.5 17 -3.5 29z
M438.998 347.002c0 18 -6.16797 32.5 -18.501 43.5s-26.166 16.5 -41.499 16.5s-28.166 -5.5 -38.499 -16.5s-15.5 -25.5 -15.5 -43.5v-18c6 -9.33301 13.5 -17.666 22.5 -24.999s19.5 -11 31.5 -11c15.333 0 29.166 5.16699 41.499 15.5s18.5 23.166 18.5 38.499z
M258.997 491.002c-9.33301 -9.33301 -20.3311 -13.999 -32.998 -13.999s-23.667 4.66699 -33 14l-114 126c-6 6 -10.333 13.167 -13 21.5s-2.33398 17.166 0.999023 26.499c6 6 12.167 11.5 18.5 16.5s14.166 7.5 23.499 7.5h516c12 0 22 -4 30 -12s12 -18 12 -30
s-4 -23 -12 -33s-18 -15 -30 -15h-408l42 -48c9.33301 -9.33301 14 -19.333 14 -30s-4.66699 -20.667 -14 -30zM672.999 77.0029c6 -6 10 -13.1689 12 -21.502s0 -17.166 -6 -26.499c-3.33301 -9.33301 -7.83301 -16.666 -13.5 -21.999s-13.167 -8 -22.5 -8h-516
c-12 0 -22 5 -30 15s-12 21 -12 33s4 22 12 30s18 12 30 12h408l-54 60c-9.33301 9.33301 -13 20.333 -11 33s7.66699 23.667 17 33s19.333 13 30 11s20.667 -7.66699 30 -17z" />
    <glyph glyph-name="t" unicode="t" horiz-adv-x="769" 
d="M385 566c19.333 0 37.8311 -3.83398 55.498 -11.501s33 -18 46 -31s23.333 -28.333 31 -46s11.5 -36.167 11.5 -55.5c0 -12 -1.16699 -22.5 -3.5 -31.5s-5.16602 -16.5 -8.49902 -22.5c-9.33301 -21.333 -21.333 -39.166 -36 -53.499s-32.667 -24.5 -54 -30.5v-240
c0 -12 -4 -22 -12 -30s-18 -12 -30 -12s-23 4 -33 12s-15 18 -15 30v240c-30 9.33301 -54.5 26.333 -73.5 51s-28.5 53.667 -28.5 87c0 19.333 3.83301 37.833 11.5 55.5s18.334 33 32.001 46s29.5 23.333 47.5 31s37.667 11.5 59 11.5zM432.998 403.999
c3.33301 6 5.16699 9.66797 5.5 11.001s0.5 3.66602 0.5 6.99902c0 15.333 -5.16699 28.166 -15.5 38.499s-23.166 15.5 -38.499 15.5s-29.166 -5.16699 -41.499 -15.5s-18.5 -23.166 -18.5 -38.499s6.16699 -29.166 18.5 -41.499s26.166 -18.5 41.499 -18.5
c12 0 22.167 4.66699 30.5 14s14.166 18.666 17.499 27.999zM642.999 698c12 0 23 -4 33 -12s15 -18 15 -30s-5 -23 -15 -33s-21 -15 -33 -15h-516c-15.333 0 -27.166 5 -35.499 15s-12.5 21 -12.5 33s4.16699 22 12.5 30s20.166 12 35.499 12h516z" />
    <glyph glyph-name="u" unicode="u" 
d="M395 179c-21.333 0 -41.002 3.83105 -59.002 11.498s-33.833 18 -47.5 31s-24.334 28.333 -32.001 46s-11.5 36.167 -11.5 55.5c0 20.667 3.83301 40.167 11.5 58.5s18.334 34.333 32.001 48s29.5 24.334 47.5 32.001s37.667 11.5 59 11.5
c19.333 0 37.833 -3.83301 55.5 -11.5s33 -18.334 46 -32.001s23.333 -29.667 31 -48s11.5 -37.833 11.5 -58.5c0 -12 -1.16699 -21.667 -3.5 -29s-5.16602 -15.666 -8.49902 -24.999c-12 -27.333 -30.167 -49.166 -54.5 -65.499s-50.166 -24.5 -77.499 -24.5z
M394.998 382.998c-15.333 0 -29.167 -5.5 -41.5 -16.5s-18.5 -25.5 -18.5 -43.5c0 -15.333 6.16699 -28.166 18.5 -38.499s26.166 -15.5 41.499 -15.5c12 0 22.5 3.66699 31.5 11s16.5 15.666 22.5 24.999v18c0 18 -5.16699 32.5 -15.5 43.5s-23.166 16.5 -38.499 16.5z
M664.997 702.998c15.333 0 27.165 -5 35.498 -15s12.5 -21 12.5 -33v-338c0 -43.333 -8.33301 -84.333 -25 -123s-39.5 -72.5 -68.5 -101.5s-62.833 -51.833 -101.5 -68.5s-79.667 -25 -123 -25s-84.333 8.33301 -123 25s-72.5 39.5 -101.5 68.5s-51.833 62.833 -68.5 101.5
s-25 79.667 -25 123v338c0 12 4 23 12 33s18 15 30 15s23 -5 33 -15s15 -21 15 -33v-338c0 -31.333 6 -60.833 18 -88.5s28.333 -51.834 49 -72.501s44.834 -37 72.501 -49s57.167 -18 88.5 -18s60.833 6 88.5 18s51.834 28.333 72.501 49s37 44.834 49 72.501
s18 57.167 18 88.5v338c0 12 4 23 12 33s18 15 30 15z" />
    <glyph glyph-name="v" unicode="v" horiz-adv-x="833" 
d="M419 393c-19.333 0 -37.833 3.83301 -55.5 11.5s-33 18 -46 31s-23.333 28.333 -31 46s-11.5 36.167 -11.5 55.5c0 20.667 3.83301 40.167 11.5 58.5s18 34.333 31 48s28.333 24.334 46 32.001s36.167 11.5 55.5 11.5c20.667 0 40.167 -3.83301 58.5 -11.5
s34.333 -18.334 48 -32.001s24.334 -29.667 32.001 -48s11.5 -37.833 11.5 -58.5c0 -19.333 -3.83301 -37.833 -11.5 -55.5s-18.334 -33 -32.001 -46s-29.667 -23.333 -48 -31s-37.833 -11.5 -58.5 -11.5zM419 597c-15.333 0 -28.166 -5.5 -38.499 -16.5
s-15.5 -25.5 -15.5 -43.5c0 -15.333 5.16699 -28.166 15.5 -38.499s23.166 -15.5 38.499 -15.5s29.166 5.16699 41.499 15.5s18.5 23.166 18.5 38.499c0 18 -6.16699 32.5 -18.5 43.5s-26.166 16.5 -41.499 16.5zM755 639l-293.999 -618
c-3.33301 -9.33301 -8.83301 -15.666 -16.5 -18.999s-16.167 -5 -25.5 -5s-17.166 1.66699 -23.499 5s-12.5 9.66602 -18.5 18.999l-294 618c-6 9.33301 -6.5 20.166 -1.5 32.499s13.5 21.5 25.5 27.5c9.33301 3.33301 20.166 3.16602 32.499 -0.500977
s21.5 -11.5 27.5 -23.5l252 -528l252 528c6 12 15.167 19.833 27.5 23.5s23.166 3.83398 32.499 0.500977c12 -6 20.5 -15.167 25.5 -27.5s4.5 -23.166 -1.5 -32.499z" />
    <glyph glyph-name="w" unicode="w" horiz-adv-x="939" 
d="M845 683c12 -3.33301 21.8301 -10.1689 29.4971 -20.502s9.83398 -21.5 6.50098 -33.5l-144 -588c0 -9.33301 -3.66699 -16.833 -11 -22.5s-15.666 -10.167 -24.999 -13.5c-9.33301 0 -17.833 1.66699 -25.5 5s-13.167 9.66602 -16.5 18.999l-144 258
c-9.33301 -3.33301 -17.333 -5.16602 -24 -5.49902s-14.667 -0.5 -24 -0.5c-19.333 0 -37.833 3.83301 -55.5 11.5s-33 18 -46 31s-23.333 28.333 -31 46s-11.5 36.167 -11.5 55.5c0 20.667 3.83301 40.167 11.5 58.5s18 34.333 31 48s28.333 24.334 46 32.001
s36.167 11.5 55.5 11.5c20.667 0 40.167 -3.83301 58.5 -11.5s34.333 -18.334 48 -32.001s24.334 -29.667 32.001 -48s11.5 -37.833 11.5 -58.5c0 -12 -1.16699 -21.667 -3.5 -29s-5.16602 -15.666 -8.49902 -24.999c-3.33301 -6 -6.33301 -11 -9 -15s-5.66699 -9 -9 -15
l90 -168l114 474c3.33301 12 10.166 21.833 20.499 29.5s21.5 9.83398 33.5 6.50098zM520.997 406.997c3.33301 6 5.16797 9.66797 5.50098 11.001s0.5 3.66602 0.5 6.99902c0 18 -5.5 32.5 -16.5 43.5s-25.5 16.5 -43.5 16.5c-15.333 0 -28.166 -5.5 -38.499 -16.5
s-15.5 -25.5 -15.5 -43.5c0 -15.333 5.16699 -28.166 15.5 -38.499s23.166 -15.5 38.499 -15.5c12 0 23.167 3.66699 33.5 11s17.166 15.666 20.499 24.999zM346.999 250.998c12 -6 19.499 -15.166 22.499 -27.499s1.5 -23.166 -4.5 -32.499l-78 -162
c-6 -9.33301 -13.167 -15.666 -21.5 -18.999s-17.166 -5 -26.499 -5c-9.33301 3.33301 -17.666 7.83301 -24.999 13.5s-11 13.167 -11 22.5l-144 588c-3.33301 12 -2 23.167 4 33.5s16.667 17.166 32 20.499c12 3.33301 23.167 1.16602 33.5 -6.50098
s17.166 -17.5 20.499 -29.5l108 -468l30 54c6 9.33301 14.5 16.166 25.5 20.499s22.5 3.5 34.5 -2.5z" />
    <glyph glyph-name="x" unicode="x" horiz-adv-x="821" 
d="M730 80c6 -9.33301 8.83301 -20.332 8.5 -32.999s-5.16602 -23.667 -14.499 -33s-20.333 -13.666 -33 -12.999s-23.667 7 -33 19l-192 210c-9.33301 -6 -19.333 -10.5 -30 -13.5s-20.667 -4.5 -30 -4.5c-21.333 0 -41 3.83301 -59 11.5s-33.833 18 -47.5 31
s-24.334 28.333 -32.001 46s-11.5 36.167 -11.5 55.5c0 15.333 2.5 30.166 7.5 44.499s10.5 27.5 16.5 39.5l-174 192c-9.33301 9.33301 -13 20.166 -11 32.499s7.66699 21.5 17 27.5c9.33301 9.33301 20.166 14 32.499 14s21.5 -4.66699 27.5 -14l180 -198
c6 3.33301 13.5 6.16602 22.5 8.49902s19.5 3.5 31.5 3.5c19.333 0 37.833 -3.83301 55.5 -11.5s33 -18.334 46 -32.001s23.333 -29.667 31 -48s11.5 -37.833 11.5 -58.5c0 -12 -1.16699 -21.667 -3.5 -29s-5.16602 -15.666 -8.49902 -24.999
c-1.33301 -1.33301 -2.33301 -2.66602 -3 -3.99902c-2 -2 -3 -4.66699 -3 -8zM454 344.001c3.33301 3.33301 5.16602 5.33203 5.49902 5.99902s0.5 2.66699 0.5 6c0 18 -5.16699 32.5 -15.5 43.5s-23.166 16.5 -38.499 16.5c-18 0 -32.5 -5.5 -43.5 -16.5
s-16.5 -25.5 -16.5 -43.5c0 -15.333 5.5 -28.166 16.5 -38.499s25.5 -15.5 43.5 -15.5c9.33301 0 18.833 4 28.5 12s16.167 18 19.5 30zM225 217c9.33301 9.33301 20.332 14 32.999 14s23.667 -4.66699 33 -14c9.33301 -6 14 -15.167 14 -27.5s-4.66699 -23.166 -14 -32.499
l-119 -131c-6 -12 -15.167 -18.333 -27.5 -19s-23.166 3.66602 -32.499 12.999s-15 20.333 -17 33s1.66699 23.667 11 33zM529.999 488c-9.33301 9.33301 -14.166 20.332 -14.499 32.999s2.5 23.667 8.5 33l122 138c9.33301 9.33301 20.333 15 33 17s23.667 -1.66699 33 -11
s14.166 -19.666 14.499 -30.999s-2.5 -23 -8.5 -35l-122 -138c-9.33301 -9.33301 -20.333 -15 -33 -17s-23.667 1.66699 -33 11z" />
    <glyph glyph-name="y" unicode="y" horiz-adv-x="761" 
d="M375 500c20.667 0 40.166 -3.83496 58.499 -11.502s34.333 -18 48 -31s24.334 -28.333 32.001 -46s11.5 -36.167 11.5 -55.5c0 -12 -1.5 -22.667 -4.5 -32s-7.5 -18.666 -13.5 -27.999c-9.33301 -18 -21.333 -34.167 -36 -48.5s-32.667 -26.166 -54 -35.499v-164
c0 -12 -4 -23 -12 -33s-18 -15 -30 -15s-23 5 -33 15s-15 21 -15 33v164c-13.333 4.66699 -26.166 11.667 -38.499 21s-23.166 20.333 -32.499 33s-16.833 26.667 -22.5 42s-8.5 31.333 -8.5 48c0 9.33301 1.16699 18.333 3.5 27s5.16602 17.667 8.49902 27l-168 216
c-9.33301 12 -13 23.667 -11 35s7.66699 21.666 17 30.999c9.33301 6 20.333 8.83301 33 8.5s23.667 -5.16602 33 -14.499l156 -204c12 6 24.167 10.5 36.5 13.5s26.166 4.5 41.499 4.5zM428.999 337.998c0 3.33301 0.999023 6.33301 2.99902 9s3 5.66699 3 9
c0 15.333 -6.16699 28.166 -18.5 38.499s-26.166 15.5 -41.499 15.5s-29.166 -5.16699 -41.499 -15.5s-18.5 -23.166 -18.5 -38.499c0 -18 6.16699 -32.5 18.5 -43.5s26.166 -16.5 41.499 -16.5c12 0 22.5 4 31.5 12s16.5 18 22.5 30zM680.998 691.998
c9.33301 -9.33301 15 -19.666 17 -30.999s-1.66699 -23 -11 -35l-111 -143c-9.33301 -9.33301 -19.666 -15 -30.999 -17s-23 1.66699 -35 11c-9.33301 9.33301 -15 19.333 -17 30s1.66699 20.667 11 30l117 149c6 9.33301 15.167 14.166 27.5 14.499
s23.166 -2.5 32.499 -8.5z" />
    <glyph glyph-name="z" unicode="z" horiz-adv-x="761" 
d="M517 347c0 -12 -1.16895 -21.6689 -3.50195 -29.002s-5.16602 -15.666 -8.49902 -24.999c-12 -27.333 -30.167 -49.166 -54.5 -65.499s-50.166 -24.5 -77.499 -24.5c-21.333 0 -41 3.83301 -59 11.5s-33.833 18 -47.5 31s-24.334 28.333 -32.001 46
s-11.5 36.167 -11.5 55.5c0 20.667 3.83301 40.167 11.5 58.5s18.334 34.333 32.001 48s29.5 24.334 47.5 32.001s37.667 11.5 59 11.5c19.333 0 37.833 -3.83301 55.5 -11.5s33 -18.334 46 -32.001s23.333 -29.667 31 -48s11.5 -37.833 11.5 -58.5zM312.998 346.998
c0 -15.333 6.16602 -28.166 18.499 -38.499s26.166 -15.5 41.499 -15.5c12 0 22.5 3.66699 31.5 11s16.5 15.666 22.5 24.999v18c0 18 -5.16699 32.5 -15.5 43.5s-23.166 16.5 -38.499 16.5s-29.166 -5.5 -41.499 -16.5s-18.5 -25.5 -18.5 -43.5zM492.997 490.998
c-9.33301 9.33301 -13.998 19.332 -13.998 29.999s4.66699 20.667 14 30l42 48h-408c-12 0 -22 5 -30 15s-12 21 -12 33s4 22 12 30s18 12 30 12h516c9.33301 0 17.166 -2.5 23.499 -7.5s12.5 -10.5 18.5 -16.5c3.33301 -9.33301 3.66602 -18.166 0.999023 -26.499
s-7 -15.5 -13 -21.5l-114 -126c-9.33301 -9.33301 -20.333 -14 -33 -14s-23.667 4.66699 -33 14zM78.999 76.9971l126 132.002c9.33301 9.33301 19.333 15 30 17s20.667 -1.66699 30 -11s15 -20.333 17 -33s-1.66699 -23.667 -11 -33l-54 -60h408c12 0 22 -4 30 -12
s12 -18 12 -30s-4 -23 -12 -33s-18 -15 -30 -15h-516c-9.33301 0 -16.833 2.66699 -22.5 8s-10.167 12.666 -13.5 21.999c-6 9.33301 -8 18.166 -6 26.499s6 15.5 12 21.5z" />
    <glyph glyph-name="braceleft" unicode="{" horiz-adv-x="486" 
d="M378 82c12 0 22 -4 30 -12s12 -18 12 -30s-4 -22 -12 -30s-18 -12 -30 -12h-258c-12 0 -22 4 -30 12s-12 18 -12 30v546c0 12 4 22 12 30s18 12 30 12h258c12 0 22 -4 30 -12s12 -18 12 -30s-4 -22 -12 -30s-18 -12 -30 -12h-216v-462h216v0z" />
    <glyph glyph-name="braceright" unicode="}" horiz-adv-x="486" 
d="M120 82h216v462h-216c-12 0 -22 4 -30 12s-12 18 -12 30s4 22 12 30s18 12 30 12h258c12 0 22 -4 30 -12s12 -18 12 -30v-546c0 -12 -4 -22 -12 -30s-18 -12 -30 -12h-258c-12 0 -22 4 -30 12s-12 18 -12 30s4 22 12 30s18 12 30 12z" />
    <glyph glyph-name=".null" horiz-adv-x="0" 
 />
    <glyph glyph-name="nonmarkingreturn" horiz-adv-x="500" 
 />
    <glyph glyph-name="Z.001" horiz-adv-x="833" 
 />
    <glyph glyph-name="at.001" horiz-adv-x="833" 
 />
  </font>
</defs>
</svg>
